<?xml version="1.0" encoding="utf-8"?>
<!-- Generator: Adobe Illustrator 21.1.0, SVG Export Plug-In . SVG Version: 6.00 Build 0)  -->
<svg version="1.1" id="illustration" xmlns="http://www.w3.org/2000/svg" xmlns:xlink="http://www.w3.org/1999/xlink" x="0px"
	 y="0px" width="1400px" height="980px" viewBox="0 0 1400 980" enable-background="new 0 0 1400 980" xml:space="preserve">
<rect id="background" fill="#D6CDB4" width="1400" height="980"/>
<g id="drop_shadow">
	<g opacity="8.000000e-02">
		<path d="M629.8,361.3c-0.7-1.8-1.4-3.1-2.2-4.2c0.4-0.7,0.9-1.5,1.3-2.4c0.2,0.3,0.3,0.5,0.5,0.8c-0.1-0.3-0.3-0.5-0.5-0.8
			c0.5-0.9,1-1.8,1.5-2.8c0.8-0.2,1.6-0.4,2.2-0.9c1.6-1,9.9-6.2,11.5-18.2c-1.9,7.7-6.2,10.6-10.6,12.6c0.1-0.3,0.3-0.5,0.4-0.8
			c0.2-0.3,0.4-0.5,0.5-0.8c-0.2,0.3-0.3,0.5-0.5,0.8c0.6-1.3,1.2-2.6,1.8-4c-0.1,0.5-0.3,0.9-0.4,1.4c0.3-0.7,0.4-1.2,0.5-1.5
			c15.7-37.3,31.5-112.1-59.5-165c0,0-23.3-13-50.3-21c-3.9-2.1-9.7-4.3-23.6-6.6c-7.4-1.2-13.9-1.7-19.6-1.8
			c-2.7-4.4-6.1-9.4-10.1-14.3c-8.4-13.6-27-31.9-68.1-38.5c-0.9-0.9-1.8-1.8-2.6-2.5c-15.8-15.3-37.4-27.8-59.3-29.9
			c-0.1,0-0.2,0-0.2,0c-7.8-1.1-26.2-2.1-36.4,3.1c20.6,4.3,36.9,35.7,37.6,56c-0.2,0.1-0.4,0.1-0.5,0.2
			c-3.9-18.1-26.2-46.7-41.3-53.7c0,0,0-0.1-0.1-0.1c-9.2-2.1-42,10.8-31.7,12.5c14.9,2.6,35,12.7,40.1,28.3
			c-8.7-10.3-15.2-16.8-24-21.1c-9-4.3-17.7-3.1-24.1-4.2c28,11.9,29.1,18,32.8,30.4c-8.1-16.6-24.4-23.2-35.9-27.4
			c2.8,3.4,0.8,7.9-2.9,12c-19-5.6-39.5-6.8-57.8,1.4c-12.3,5.3-20.4,13.4-23.5,16.9c-9.7,7.5-17,17.5-19.1,29.4
			c-0.7,3-1.8,10-2.4,15.2c-2.1,2.6-4.1,5.2-5.7,7.5c-4.3,6.3-6.1,14.3-6.9,22.4c-1.3,12.4,0.2,21.9,6.4,30c-0.1,0.8-0.1,1.7,0,2.7
			c1.4,10.4,13.1,9.2,21.5,11.8c2.8,0.9,5.9,1.6,9,2c-6.8,2.9-19,1.8-25.6-1c4.8,10.2,25.8,11.8,35.1,16.9
			c-7.9-0.1-14.8,2.8-22.5,0.2c13.3,6.1,3.3,13.8-5.7,16.2c-0.9,7.1,6.6,6.5,8,9.2c1,2,0.6,3.3,0.5,3.6c-0.7,0.7-7.5,1.3-6.2,5.5
			c0.1,0.5,0.8,4.3,0.9,4.4c11.2,1.3,23.5,7.1,34,10.6c-0.2,0.1-0.4,0.1-0.6,0.2c-6.3,0.9-20.8,1.8-33.3-8.6c0,0-1,0.2-0.6,1.9
			c0,0,8.7,6,18.3,9.9c-6.5,0.6-12-2.4-17.5-5.5c14.8,14.1,37,9.5,55.5,13.6c-17.5,7.2-43.7,5-53.5,0.2c3.1,6.4,6.9,16.3,2.4,22.5
			c3.6,2.3,10,7.1,13.2,11.8c-1.3,0.3-2.7,0.6-4,0.9c0.4,1.4,0.7,2.4,0.9,3.1c1.1,6.3-0.2,11.6,2.5,17.5c2.4,5.4,4.6,12.1,9.9,14.6
			c23,10.7,16.9,69,37.7,82.6c12.7,8.3,15.3,16.5,29,22.6c11.6,5.2,15.9,16.5,26.1,21.5c9.9,4.9,21.7,6.2,31.3,11.5
			c10.7,5.9,7.8,16.7,15.7,24c0,0.1,0.1,0.1,0.1,0.2c2.3,2.8,6.3,1.9,9.2,0.7c2.3,5.3,5.6,8.2,9.8,5.3c4.7-3.1,5.6-8.8,7.7-14.1
			c1.8-4.4,3.4-11.5,5.2-18.1c8.9,6.3,16.1,8.4,16.2,8.4c1.2,12,1.6,24.9-2,41.5c-2.1,9.5-5.4,20.1-10.6,32.5
			c-14.2,33.5-57.6,90.5-71.7,111.1c-33.4,48.8-41.8,86.6-50.3,133.1c-6.9,37.8-0.6,54.3-2.2,115.2c-0.1,5,0.1,11.4,0.4,18.2h3.3
			h2.5h96.8h6.5h147.1h6.4h80.6h6.1h7.2c-5-7.4-10.6-14-15.8-18.2c-24.5-19.8-51.6-48.4-43.8-88.7c2.1-6.1,4.3-12.1,6.4-18
			c3.8-8.7,6.9-17,9.5-24.7c0,0,0,0,0,0c22.9-56.3,12.9-95.3-29.7-116c-4.1-2-11.6-5-21.5-7.6c-1.1-31.5,19.9-45.8,20.7-57.3
			c0.3-4.3-3.6-8.5-8.5-12.4c11.4-26.6,27.2-43.6,33.5-49.8c2.4,0.2,4.8,0.4,7.1,0.5c2.6,0.1,7.1,0.3,12.6,0.3c0.3,0,0.7,0,1,0.1
			c8.1,0.4,22.2-0.2,35.7-3.1c10.2-1.9,19.6-5.1,25.7-10.1c4-3,7-6.6,8.1-11c2.1-8.1,3.6-15.9,4.9-23.5c3.4-16.9,4.2-31,5.5-47
			c0.5-6.6,1-13.7,1.7-21.2c1.1-10.7,2-27.1,2.7-39.3C654.4,409.9,647.5,388.2,629.8,361.3z M628.6,345.1c0.6-0.5,1.2-1.1,1.9-1.7
			c0,0,0,0,0,0.1C629.9,344.1,629.3,344.7,628.6,345.1z M348.7,513.2c1.1-0.2,2.1-0.4,3.2-0.7c1.1,1,2.1,2,3.1,2.9
			c-3.3,1.2-6.4,2.1-9.3,2.8C346.7,516.3,347.7,514.6,348.7,513.2z M626.5,294.9c-0.4,6.1-0.8,14.4-1.6,22.7
			c-0.2-7.9-0.5-16-0.9-23.3c-1.5-27.7-8.3-63.8-42.8-92.9C593.1,209.9,630.3,235.6,626.5,294.9z M457.4,131.3
			c-13-12.5-27.5-24-44.3-29c-0.1-0.1-0.2-0.2-0.2-0.3c11.5,0.3,32.8,4.1,44.3,27.3C457.2,130,457.3,130.6,457.4,131.3z
			 M342.6,524.6c0.8-1.8,1.6-3.4,2.3-4.9c3.4-0.8,6.7-1.8,9.9-3c-1.2,6.8-3.3,13.7-6.5,17.9c-5.4,7-8,5.4-9.6,1.1
			C339.8,530.9,341.4,526.7,342.6,524.6z M629.7,361.3c-0.8-1.2-1.6-2.4-2.5-3.6c0,0,0.1-0.1,0.1-0.1
			C628.3,358.5,629.1,359.8,629.7,361.3z M611.7,204.8c0,0,58.7,53.8,21.5,133.2c0-0.2,0.1-0.5,0.1-0.7c0,0.3-0.1,0.6-0.2,0.9
			c-0.7,1.4-1.3,2.8-2.1,4.2c-0.5,0.5-1,1-1.7,1.6c-0.4,0.4-1,0.7-1.6,1c0.3-1.2,0.6-2.3,1-3.5c0.6-1,1.3-2.1,1.9-3.6
			c-0.4,0.9-1,1.8-1.6,2.6c10.6-38.4,22.3-75.3-5.2-113.2c-11.5-15.9-37.2-38.1-60.3-53C579.2,180.7,595.7,190.4,611.7,204.8z
			 M450.6,115.4c2,2.6,3.7,5.5,4.9,8.6c-8.5-11.4-22.4-22.3-44.7-24.1c-1.2-1.3-2.3-2.5-3.4-3.6C415.9,96.8,434.4,100.1,450.6,115.4
			z M393.8,106.2c-0.6,1-1.5,1.8-2.7,2.6c-10.8-17-29.2-40.2-43.5-46.5C369,67.6,386,83.1,393.8,106.2z M228.5,95.2
			c9,1.4,15.6,4.4,20.8,7.4c-0.8,0.5-1.5,1.1-2.3,1.5c-8.9-3.5-18.7-5.4-31.2-4.6c-12.8,0.8-27.5,5.8-39.2,14.2
			C202.2,91.2,220,93.9,228.5,95.2z M209,127c10.2,0,20.2,2.2,30,5.1c-25.9-3.2-56.2,3.2-74.2,16.2c-2.9,2.1-5.9,5-8.7,8.1
			C167.7,132.2,196.1,127,209,127z M146.9,185.7c6.1-19.9,35.3-31.3,54.8-29.9c-32,5.7-60.6,23.7-50.4,58.6
			c-1.6,0.7-2.9,1.7-3.7,3.1C143.4,207.7,144.1,194.9,146.9,185.7z M165.3,211c-4.6,1.5-9.9,1.8-13.7,3.4
			c-6.3-25.2,8.1-40.8,23.5-46.5c11.2-4.1,54.3-2.4,36.5,18.1C201.5,197.6,179.6,206.4,165.3,211z M333.2,537.8
			c-0.4-1.5-0.5-3.2-0.4-4.8c0.4-0.6,0.8-1.2,1.2-1.6c0.6,4.2,1.5,8.6,2.7,12.3C335.2,542,333.9,540.5,333.2,537.8z M349.3,545.4
			c-4.2,1.8-7.3-0.2-9.6-3.9c1.9,1.4,4.5,0.9,8.1-3.1c4.6-5.1,5.5-13.7,7.6-21.8c0.2-0.1,0.4-0.2,0.7-0.2c0.3,0.3,0.6,0.5,1,0.8
			C355.7,527.8,353.4,543.6,349.3,545.4z"/>
		<path d="M301.6,66.3c0,0,0.1,0,0.1,0C301.4,65.9,301.4,65.9,301.6,66.3z"/>
	</g>
	<g>
		<path fill="#9B8579" d="M614.5,361.3c-0.7-1.8-1.4-3.1-2.2-4.2c0.4-0.7,0.9-1.5,1.3-2.4c0.2,0.3,0.3,0.5,0.5,0.8
			c-0.1-0.3-0.3-0.5-0.5-0.8c0.5-0.9,1-1.8,1.5-2.8c0.8-0.2,1.6-0.4,2.2-0.9c1.6-1,9.9-6.2,11.5-18.2c-1.9,7.7-6.2,10.6-10.6,12.6
			c0.1-0.3,0.3-0.5,0.4-0.8c0.2-0.3,0.4-0.5,0.5-0.8c-0.2,0.3-0.3,0.5-0.5,0.8c0.6-1.3,1.2-2.6,1.8-4c-0.1,0.5-0.3,0.9-0.4,1.4
			c0.3-0.7,0.4-1.2,0.5-1.5c15.7-37.3,31.5-112.1-59.5-165c0,0-23.3-13-50.3-21c-3.9-2.1-9.7-4.3-23.6-6.6
			c-7.4-1.2-13.9-1.7-19.6-1.8c-2.7-4.4-6.1-9.4-10.1-14.3c-8.4-13.6-27-31.9-68.1-38.5c-0.9-0.9-1.8-1.8-2.6-2.5
			c-15.8-15.3-37.4-27.8-59.3-29.9c-0.1,0-0.2,0-0.2,0c-7.8-1.1-26.2-2.1-36.4,3.1c20.6,4.3,36.9,35.7,37.6,56
			c-0.2,0.1-0.4,0.1-0.5,0.2c-3.9-18.1-26.2-46.7-41.3-53.7c0,0,0-0.1-0.1-0.1c-9.2-2.1-42,10.8-31.7,12.5
			c14.9,2.6,35,12.7,40.1,28.3c-8.7-10.3-15.2-16.8-24-21.1c-9-4.3-17.7-3.1-24.1-4.2c28,11.9,29.1,18,32.8,30.4
			C271.3,95.7,255,89.2,243.5,85c2.8,3.4,0.8,7.9-2.9,12c-19-5.6-39.5-6.8-57.8,1.4c-12.3,5.3-20.4,13.4-23.5,16.9
			c-9.7,7.5-17,17.5-19.1,29.4c-0.7,3-1.8,10-2.4,15.2c-2.1,2.6-4.1,5.2-5.7,7.5c-4.3,6.3-6.1,14.3-6.9,22.4
			c-1.3,12.4,0.2,21.9,6.4,30c-0.1,0.8-0.1,1.7,0,2.7c1.4,10.4,13.1,9.2,21.5,11.8c2.8,0.9,5.9,1.6,9,2c-6.8,2.9-19,1.8-25.6-1
			c4.8,10.2,25.8,11.8,35.1,16.9c-7.9-0.1-14.8,2.8-22.5,0.2c13.3,6.1,3.3,13.8-5.7,16.2c-0.9,7.1,6.6,6.5,8,9.2
			c1,2,0.6,3.3,0.5,3.6c-0.7,0.7-7.5,1.3-6.2,5.5c0.1,0.5,0.8,4.3,0.9,4.4c11.2,1.3,23.5,7.1,34,10.6c-0.2,0.1-0.4,0.1-0.6,0.2
			c-6.3,0.9-20.8,1.8-33.3-8.6c0,0-1,0.2-0.6,1.9c0,0,8.7,6,18.3,9.9c-6.5,0.6-12-2.4-17.5-5.5c14.8,14.1,37,9.5,55.5,13.6
			c-17.5,7.2-43.7,5-53.5,0.2c3.1,6.4,6.9,16.3,2.4,22.5c3.6,2.3,10,7.1,13.2,11.8c-1.3,0.3-2.7,0.6-4,0.9c0.4,1.4,0.7,2.4,0.9,3.1
			c1.1,6.3-0.2,11.6,2.5,17.5c2.4,5.4,4.6,12.1,9.9,14.6c23,10.7,16.9,69,37.7,82.6c12.7,8.3,15.3,16.5,29,22.6
			c11.6,5.2,15.9,16.5,26.1,21.5c9.9,4.9,21.7,6.2,31.3,11.5c10.7,5.9,7.8,16.7,15.7,24c0,0.1,0.1,0.1,0.1,0.2
			c2.3,2.8,6.3,1.9,9.2,0.7c2.3,5.3,5.6,8.2,9.8,5.3c4.7-3.1,5.6-8.8,7.7-14.1c1.8-4.4,3.4-11.5,5.2-18.1c8.9,6.3,16.1,8.4,16.2,8.4
			c1.2,12,1.6,24.9-2,41.5c-2.1,9.5-5.4,20.1-10.6,32.5c-14.2,33.5-57.6,90.5-71.7,111.1c-33.4,48.8-41.8,86.6-50.3,133.1
			c-6.9,37.8-0.6,54.3-2.2,115.2c-0.1,5,0.1,11.4,0.4,18.2h3.3h2.5h96.8h6.5h147.1h6.4h80.6h6.1h7.2c-5-7.4-10.6-14-15.8-18.2
			c-24.5-19.8-51.6-48.4-43.8-88.7c2.1-6.1,4.3-12.1,6.4-18c3.8-8.7,6.9-17,9.5-24.7c0,0,0,0,0,0c22.9-56.3,12.9-95.3-29.7-116
			c-4.1-2-11.6-5-21.5-7.6c-1.1-31.5,19.9-45.8,20.7-57.3c0.3-4.3-3.6-8.5-8.5-12.4c11.4-26.6,27.2-43.6,33.5-49.8
			c2.4,0.2,4.8,0.4,7.1,0.5c2.6,0.1,7.1,0.3,12.6,0.3c0.3,0,0.7,0,1,0.1c8.1,0.4,22.2-0.2,35.7-3.1c10.2-1.9,19.6-5.1,25.7-10.1
			c4-3,7-6.6,8.1-11c2.1-8.1,3.6-15.9,4.9-23.5c3.4-16.9,4.2-31,5.5-47c0.5-6.6,1-13.7,1.7-21.2c1.1-10.7,2-27.1,2.7-39.3
			C639.1,409.9,632.2,388.2,614.5,361.3z M613.4,345.1c0.6-0.5,1.2-1.1,1.9-1.7c0,0,0,0,0,0.1C614.6,344.1,614,344.7,613.4,345.1z
			 M333.4,513.2c1.1-0.2,2.1-0.4,3.2-0.7c1.1,1,2.1,2,3.1,2.9c-3.3,1.2-6.4,2.1-9.3,2.8C331.5,516.3,332.5,514.6,333.4,513.2z
			 M611.2,294.9c-0.4,6.1-0.8,14.4-1.6,22.7c-0.2-7.9-0.5-16-0.9-23.3c-1.5-27.7-8.3-63.8-42.8-92.9
			C577.8,209.9,615,235.6,611.2,294.9z M442.1,131.3c-13-12.5-27.5-24-44.3-29c-0.1-0.1-0.2-0.2-0.2-0.3
			c11.5,0.3,32.8,4.1,44.3,27.3C441.9,130,442,130.6,442.1,131.3z M327.4,524.6c0.8-1.8,1.6-3.4,2.3-4.9c3.4-0.8,6.7-1.8,9.9-3
			c-1.2,6.8-3.3,13.7-6.5,17.9c-5.4,7-8,5.4-9.6,1.1C324.5,530.9,326.1,526.7,327.4,524.6z M614.4,361.3c-0.8-1.2-1.6-2.4-2.5-3.6
			c0,0,0.1-0.1,0.1-0.1C613,358.5,613.8,359.8,614.4,361.3z M596.4,204.8c0,0,58.7,53.8,21.5,133.2c0-0.2,0.1-0.5,0.1-0.7
			c0,0.3-0.1,0.6-0.2,0.9c-0.7,1.4-1.3,2.8-2.1,4.2c-0.5,0.5-1,1-1.7,1.6c-0.4,0.4-1,0.7-1.6,1c0.3-1.2,0.6-2.3,1-3.5
			c0.6-1,1.3-2.1,1.9-3.6c-0.4,0.9-1,1.8-1.6,2.6c10.6-38.4,22.3-75.3-5.2-113.2c-11.5-15.9-37.2-38.1-60.3-53
			C563.9,180.7,580.4,190.4,596.4,204.8z M435.3,115.4c2,2.6,3.7,5.5,4.9,8.6c-8.5-11.4-22.4-22.3-44.7-24.1
			c-1.2-1.3-2.3-2.5-3.4-3.6C400.7,96.8,419.1,100.1,435.3,115.4z M378.6,106.2c-0.6,1-1.5,1.8-2.7,2.6
			c-10.8-17-29.2-40.2-43.5-46.5C353.8,67.6,370.8,83.1,378.6,106.2z M213.3,95.2c9,1.4,15.6,4.4,20.8,7.4c-0.8,0.5-1.5,1.1-2.3,1.5
			c-8.9-3.5-18.7-5.4-31.2-4.6c-12.8,0.8-27.5,5.8-39.2,14.2C186.9,91.2,204.7,93.9,213.3,95.2z M193.7,127c10.2,0,20.2,2.2,30,5.1
			c-25.9-3.2-56.2,3.2-74.2,16.2c-2.9,2.1-5.9,5-8.7,8.1C152.4,132.2,180.8,127,193.7,127z M131.6,185.7
			c6.1-19.9,35.3-31.3,54.8-29.9c-32,5.7-60.6,23.7-50.4,58.6c-1.6,0.7-2.9,1.7-3.7,3.1C128.2,207.7,128.8,194.9,131.6,185.7z
			 M150.1,211c-4.6,1.5-9.9,1.8-13.7,3.4c-6.3-25.2,8.1-40.8,23.5-46.5c11.2-4.1,54.3-2.4,36.5,18.1
			C186.2,197.6,164.4,206.4,150.1,211z M317.9,537.8c-0.4-1.5-0.5-3.2-0.4-4.8c0.4-0.6,0.8-1.2,1.2-1.6c0.6,4.2,1.5,8.6,2.7,12.3
			C320,542,318.6,540.5,317.9,537.8z M334,545.4c-4.2,1.8-7.3-0.2-9.6-3.9c1.9,1.4,4.5,0.9,8.1-3.1c4.6-5.1,5.5-13.7,7.6-21.8
			c0.2-0.1,0.4-0.2,0.7-0.2c0.3,0.3,0.6,0.5,1,0.8C340.4,527.8,338.2,543.6,334,545.4z"/>
		<path fill="#9B8579" d="M286.4,66.3c0,0,0.1,0,0.1,0C286.1,65.9,286.1,65.9,286.4,66.3z"/>
	</g>
</g>
<g id="woman">
	<g>
		<path fill="#F3E4C3" d="M524.5,864.1c25.3-52.9,25.3-93.1,25.3-93.1c-5.3-52.1-62.8-62.9-62.8-62.9C477,646,531.5,577,531.5,577
			l-163.3-68.2c10.3,88.5-69,179.3-69,179.3c-56.3,73.6-70.5,162.5-70.5,162.5c-3.2,32.5-1.7,91.4-0.2,129.3h346
			c-16.1-20.2-35.1-40.1-35.1-40.1C506.1,898.6,524.5,864.1,524.5,864.1z"/>
	</g>
	
		<linearGradient id="SVGID_1_" gradientUnits="userSpaceOnUse" x1="1363.5177" y1="255.7604" x2="1538.4489" y2="255.7604" gradientTransform="matrix(-1 0 0 1 1996 0)">
		<stop  offset="0" style="stop-color:#000000"/>
		<stop  offset="1" style="stop-color:#050505"/>
	</linearGradient>
	<path fill="url(#SVGID_1_)" d="M608.5,363.4c0,0,78.1-114.9-47.5-188c0,0-64.8-36-103.4-25.3l2.6,13.8c0,0,72.4-16.5,136.2,40.8
		c0,0,70,64.2,8.6,155.8L608.5,363.4z"/>
	<path fill="#231F20" d="M456.3,140.2c0.3,0.2,0.7,0.5,1.1,0.7c4.3,2.2,10.8,6.4,15.7,6.9c12.9,1.2,34.1,5.3,46,10.3
		c25.1,10.6,29.7,23,44,45.6c7.2,11.4,8.7,22.5,13.6,34.5c5.1,12.3,13,23.9,16.3,36.7c2.7,10.6,5.3,22.9,2.3,33.4
		c-9.7-17.4-18.6-35.4-28.6-53.2c-9.8-17.5-21.9-28.5-39.7-37.7c-7.7-4-31.1-3.7-30.7-2.3L383.8,460.5
		c-14.9,12.9-29.6,24.6-41.2,40.7c-5.6,7.7-9.2,9.9-15.2,23.4c-2,3.4-4.9,12.1-4.9,20.1c-1.3-3.9-3.1-10.1-2.4-14.4
		c-4.6,2.8-5.3,11.7-5.4,16.7c-9.5-7.3-5.7-18.9-16.9-25.1c-9.5-5.3-21.3-6.5-31.3-11.5c-10.1-5-14.5-16.3-26.1-21.5
		c-13.6-6.1-16.2-14.3-29-22.6c-20.9-13.6-14.7-71.9-37.7-82.6c-5.4-2.5-7.5-9.2-9.9-14.6c-2.6-5.9-1.4-11.2-2.5-17.5
		c-0.1-0.7-0.4-1.7-0.9-3.1C282.9,322.9,384.4,241.3,456.3,140.2z"/>
	
		<linearGradient id="SVGID_2_" gradientUnits="userSpaceOnUse" x1="1370.5742" y1="251.7616" x2="1567.7626" y2="251.7616" gradientTransform="matrix(-1 0 0 1 1996 0)">
		<stop  offset="0" style="stop-color:#000000"/>
		<stop  offset="1" style="stop-color:#050505"/>
	</linearGradient>
	<path fill="url(#SVGID_2_)" d="M428.2,150.9c10.4-0.3,24.8-8.5,58.8-3c27.5,4.5,23.5,8.6,34.9,12.6c25.9,9.1,70.3,44.2,86.6,66.7
		c31.5,43.6,11.5,85.6,0.6,130.4c-0.2-8.5-6.1-8.1-3.5-16.6c4-13.2,4.9-33.8,5.6-46c3.8-59.3-33.4-85-45.3-93.4
		c34.5,29.1,41.3,65.2,42.8,92.9c1.1,19.5,1.9,45.6-1,56.3c-1.7-13.1-12.9-22.8-17.2-35c-1.9-5.4-0.7-11.6-1.9-17.7
		c-2.9-14.9-11.2-21.4-20.7-32.8c-14.5-17.3-19.3-38.9-35.2-55.2c-15.6-15.8-30-33.2-44.6-49.4c-10.5-11.6-34.2-12.7-50.6-14.6"/>
	<g>
		<path fill="#F3E4C3" enable-background="new    " d="M517.2,214.5c26.8,1.7,48.7,33.7,61.9,56.5c9.2,15.9,9.8,19,16.7,28.2
			c5.7,7.6,9.1,23,11.1,43.1l4.5,14.4c36.8,52.9,22.3,100.9,20.9,136.8c-0.8,20-2.3,43.7-9.2,70.5c-5.4,21-51.8,25-69.5,24.1
			c-31-1.5-51.3-3.8-78.5-11.9c-30.3-9-40.2-11.5-69-39.1c0,0-10.3-10.3-19.2-17.6c0,0-1.9,14.6-24.9,7.8c0,0-37.9-10.1-47.9-61.4
			c0,0-5.4-29.1,31.4-27.6C345.6,438.3,247.5,197.6,517.2,214.5z"/>
		<path fill="#E6D0A1" enable-background="new    " d="M387.7,518.6c8.8,7.2,19.1,17.6,19.2,17.7c27.9,26.8,46.9,31.1,70.5,37.5
			c0,0,35.9,10.4,77.6,12.1c21.5,0.9,58.9-5.1,65.5-22.4c4.6-12.1,9.6-48.7,10.5-70c0.3-6.7,1-13.8,1.7-21.3
			c3.2-32.1,7.3-72.1-22.4-114.8l-0.1-0.2l-4.5-14.5c-2.1-21.9-5.7-35.8-10.9-42.8c-4.5-6-6.4-9.5-9.5-15.3l-7.3-13
			c-21.1-36.4-41-54.7-61-56c-18.6-1.2-35.8-1.1-51.7,0.1c0.1-0.8,0.2-1.6,0.4-2.3c15.9-1.2,33-1.2,51.5-0.1
			c20.8,1.3,41.3,20,62.8,57.1l7.3,13.1c3.2,5.9,4.9,9.1,9.3,15c5.5,7.3,8,21.7,10.1,43.8c0,0,4.4,14.1,4.5,14.4
			c20.1,29,27.9,51.9,26.4,76.3c-0.7,12.2-1.6,28.6-2.7,39.3c-0.8,7.5-1.2,14.6-1.7,21.2c-1.9,23.4-2.7,42.8-12.2,72.8
			c-7.5,23.6-67.9,22.1-81.2,21.5c-30.6-1.5-69.7-11.5-69.7-11.5c-28.6-8.4-36.5-11.1-64.8-38.3c-0.1-0.1-9.4-9.4-17.8-16.4
			c-0.4,1.2-1.2,2.7-2.5,4.2c0.8-2.5,1.6-5,2.3-7.4L387.7,518.6z"/>
		<path fill="#E6D0A1" enable-background="new    " d="M318.3,445.9c5.3-6.1,13.9-9,25.6-8.8c-3-8-16.7-46.7-16.7-89.8
			c0-27.3,5.5-56.3,22.8-80.3c22.6-31.5,61.5-49.4,115.8-53.6c-0.1,0.8-0.2,1.6-0.4,2.3c-53.3,4.1-91.5,21.7-113.6,52.6
			c-46.8,65.2-5.6,168.5-5.2,169.5l0.7,1.7l-1.8-0.1c-11.9-0.5-20.4,2.2-25.5,8c-6.6,7.6-4.8,18.2-4.8,18.3
			c9.7,50,42.8,58.6,43.1,58.7c9,2.5,15.6,0.2,19.6-1.7c7.7-3.7,6.7-16.9,6.7-16.9s6.8,13.3-1.1,19.9c-0.6,0.7-7.7,6.5-21.8,2.7
			c-0.4-0.1-38.7-10.8-48.7-62.3C312.9,465.6,310.9,454.3,318.3,445.9z"/>
	</g>
	<g enable-background="new    ">
		<g>
			<path fill="#E6D0A1" d="M535.5,584.7c-0.5,0.6-52.3,44.5-48.6,121.7c0,0-15.7-54,37.7-122.2L535.5,584.7z"/>
		</g>
	</g>
	<g>
		<path fill="#BE1E2D" d="M524.5,864.1c25.3-52.9,25.3-93.1,25.3-93.1c-5.3-52.1-62.8-62.9-62.8-62.9c-1.8-32.5,19.9-46.9,20.7-58.7
			c0.6-9-17.2-18-24.6-23.2l-121.4-56.4c-28.6,85.7-62.4,118.3-62.4,118.3c-56.3,73.6-70.5,162.5-70.5,162.5
			c-3.2,32.5-1.7,91.4-0.2,129.3h346c-16.1-20.2-35.1-40.1-35.1-40.1C506.1,898.6,524.5,864.1,524.5,864.1z"/>
	</g>
	<g>
		<path fill="#FFFFFF" d="M448.1,403.8c2.6,9.4,14.7,8.4,22.7,6.9c7.1-1.3,11.5-2.8,24.3-10.4c4.5-2.6,11.3-4.3,15.3-6.5
			c3.9-1.8-9.9-9.5-16-10.7c-9.4-1.8-17.1-2.1-26,2.1c-7.5,3.6-18.9,9.2-19.9,18"/>
		<g>
			<path fill="#2B1A0F" d="M480.3,384.7c6.7,5.4,8.8,17.6,1.2,22.9c-7,4.9-19.1,7.2-25.3,1c-3.1-3.1-4.8-8.4-5.3-11.3
				c5.5-8.7,21.4-13.2,31-11.6"/>
			<path fill="#F0F0F0" d="M468.1,393.9c5.2-0.5,6.1,8.2,0.6,9C462.9,403.7,460.6,394.5,468.1,393.9"/>
		</g>
		<g>
			<path fill="#231F20" d="M457.5,413.2c2.9,0.9,7.4,0.9,9.6,0.4c-1.9,1.1-4,3.1-3.4,5.5c-0.5-1.6-0.1-3.3,0.5-5.2
				c-3.2,1.2-4.4,4.9-3.8,9.4c-0.6-4-0.5-6.1,0.2-9.4c-1.2,1.2-1.7,2.8-1.6,4.3c-0.1-1.1-0.4-2.3-0.2-3.3c-1.1,1.4-1.2,3.3-1.6,5
				c0-2-0.6-4.3,0.5-6.2L457.5,413.2z"/>
			<path fill="#231F20" d="M473.3,412.3c1.9-0.7,4.8-1.8,6.3-2.3c-2.3,1.9-3.9,5.3-1.8,9.9c-2.1-3.9-1.4-5.2-1.3-7.9
				c-1.3,1-1.9,2.9-1.4,4.4c-0.5-1-0.8-2.2-0.9-3.2c-4.4,2.3-2.6,8.6-1.5,11.7c-1.4-2.6-2.3-8.1-1-11.5c-1.9-0.2-1.5,2.5-1.3,3.8
				c-0.2-1.1-0.3-2.1-0.2-3.1c-2,1.3-1.6,4.5-0.6,6.6c-1-2-2-4.7-1.2-7C468.7,413.1,471.9,412.8,473.3,412.3z"/>
			<path fill="#231F20" d="M468.2,413.4c0,0.1,0,0.2-0.1,0.2c0,0-0.1,0.1-0.1,0.1L468.2,413.4z"/>
			<path fill="#231F20" d="M480.6,409.4c1.1-0.7,2.4-1.3,3.7-2c0.2-0.1,0.5-0.3,0.7-0.4c0,0-0.1,0.1-0.1,0.1
				c1.8-0.9,3.6-1.7,5.1-2.8c-1,1.3-2.5,2.9-1.6,4.3c0.1,0.2-1.1-1.1-1.1-2.5c-1.6,1-1.7,2.4-0.8,3.9c-1.1-1.2-1.5-1.4-1.6-2.7
				c-0.2,0.1-0.3,0.1-0.4,0.2c-0.7,0.8-1.3,2.1-1.4,2.8c-0.3,1.5-0.1,3.2,0.6,4.6c-1-1.8-1.3-4.8-0.3-6.7c-2.3,2.2-0.4,6.3,0.1,7.4
				c-2.2-3.9-1.6-5.9-1.4-7c-1.5,1.8-1.7,3.7-0.8,6c-1.1-1.8-1.5-3.5-0.8-5.1L480.6,409.4z"/>
			<path fill="#231F20" d="M493.4,405.3c-0.3-0.7-0.6-1.5-0.3-2.3c-1.2,1.1-0.8,2.5-0.6,3.4c-0.8-1-1-1.8-1-2.9l-0.6,0.2
				c0.8-0.6,1.8-0.7,2.9-1.8C493.3,403,493,404.4,493.4,405.3z"/>
			<path fill="#231F20" d="M412.7,411.5c2.6,1.5,11.8,6.4,22.9,3.2c2.5-0.7,5.1-1.9,7.4-3.3c-0.9,2-1.1,4.3-1.1,6.2
				c0-4.2,1.6-6.5,5.7-8.4c-0.4,0.9-0.8,1.8-0.9,2.8c0.5-1.1,1.1-1.7,1.5-2.1c-1.7,3.3-4.4,7.1-3.1,13.5c-0.9-5.3,1.9-10.7,5.6-12.6
				c-1.1,1-1.9,3.1-2,4.5c0.2-1.6,0.9-2.9,1.8-3.6c-0.3,0.5-0.6,1-0.7,1.6c-0.3,1.1-0.5,2.5-0.3,3.4c-0.4-1.5,0.8-3.6,2.1-4.4
				c-0.4,0.5-0.5,1.2-0.6,1.8c0.4-1,1-1.5,1.9-2.2c-2.1,2.5-1.2,6-0.9,8.9c-0.4-2.7-0.1-5.7,1.9-7.9c-0.1,0.7,0,1.3,0.1,2
				c0.1-1,0.4-1.7,1.3-2.3c-1.3-0.5-2.5-0.9-3.6-1.7c0.1,0,0.2-0.1,0.3-0.1c-0.3,0-0.5-0.1-0.8-0.2c0,0,0,0,0,0l0,0c0,0,0,0-0.1,0
				c0.1-0.1,0.3-0.2,0.4-0.2c-0.2,0.1-0.3,0.1-0.5,0.2c-1.5-0.5-2.9-1.4-3.7-2.7c0.5-0.5,0.9-1,1.3-1.5c3.2-4.4,5.9-9.2,12.6-13.6
				c6.8-4.5,15.9-7.6,26.5-7.7c3.9-0.1,8.3,0.8,12.5,2.1c5.6,1.7,9.9,4,11.1,5.1c-2.2-2.4-4.1-3.7-7-5.3c-5.8-3.2-9.1-4-12.7-4.8
				c-3.6-0.7-10.1-1-14.2-0.5c-1.5-0.5-2.4-1.4-3.1-3.2c0.3,1.3,1,2.4,1.9,3.3c-0.5,0.1-1,0.2-1.5,0.3c-2.5-0.8-3.9-2.6-4.7-5
				c0.7,2.8,1.9,4.1,3.4,5.2c-0.6,0.1-1.3,0.3-1.9,0.4c-2.1-0.5-4-2-5.3-4.2c1.3,2.3,2.5,3.5,4,4.5c-0.1,0-0.3,0.1-0.4,0.1
				c-1.4-0.5-2.4-1.9-3-3.3c0.3,0.8,0.7,1.6,1.2,2.3c0.2,0.4,0.7,0.8,1.2,1.1c-0.2,0.1-0.5,0.1-0.7,0.2c-0.7-0.3-1.4-0.8-2-1.4
				c0.4,0.5,0.9,1,1.4,1.5c-0.7,0.2-1.1,0.3-1.2,0.3c-4,1.7-8.9,0.8-11.4-4.5c2.1,4.5,4.3,6.1,6.6,7.2c-1.3-0.1-2.6-0.7-3.4-1.3
				c-1.8-1.5-3.1-4.1-3.4-6.2c0.4,2.5,1.7,5.3,3.8,6.9c1,0.7,1.7,1,2.8,1.2c0.7,0.2,1.1,0.2,1.8,0.1c0,0,0,0,0,0
				c-3.5,1-11.1-1.3-10.4-7.9c-0.8,5.1,4.1,9.1,7.2,9.9c-3.2,0.5-6.6-2-8.2-4.4c1.1,1.8,3.1,3.9,5,5.1c-0.8,0.5-1.5,1-2.3,1.4
				c-5.5,1.7-10.5-0.7-14.2-5.3c1.9,2.9,5.3,5.1,8.5,6.3c-1.1-0.2-1.8-0.4-2.3-0.6c1.3,0.5,2.5,0.9,3.6,1c0,0,0.1,0,0.1,0
				c-3.2,0.4-6.5-1.2-10.2-6.4c2.5,4.4,7.1,8.6,10.6,8.1c-2.5,1.1-5.3,0.9-7,0.8c-5.5-0.6-7.7-2.4-9.8-4.6c1.2,1.8,3.1,3.2,5.3,4.2
				c0.9,0.9,2.2,1.6,3.3,2.1c0.8,0.4,1.9,0.6,3,0.8c-4.1,1.8-9.5-0.6-12.7-2.3c4.5,2.9,9.7,4.4,14.5,3c-1.3,1.5-2.5,2.6-3.9,3.6
				c-5.2,1.5-8.9,0.8-10.4,0.4c2.9,0.9,6,0.9,8.8,0.5c-0.5,0.2-1,0.5-1.5,0.7c-3.4,1.5-9,1.7-12.9-0.3c7.2,3.6,11.8,2.3,14.6,0.8
				c-0.2,0.5-0.5,1-0.8,1.4c-2.7,1.1-5.3,1.9-7,2.1c-1.8,0.2-3,0.2-4.5,0.1c-1.3-0.1-2.4-0.5-2.5-0.6c-0.2-0.1-0.4-0.2-0.6-0.3
				c2,1.3,4.4,1.4,5.5,1.4c2.2,0,4.1-0.1,6.2-0.5c-3.9,1.6-9.4,1-12.3-1.3c0.1,0.1,0.3,0.2,0.6,0.4c-0.2-0.1-0.5-0.3-0.7-0.5
				c-0.2-0.2-0.4-0.3-0.5-0.5c1.9,2.3,6.2,3.6,9.2,4c1.1,0.2,2.1,0.2,2.9,0.2c-3,2.2-7.7,2.7-10.9,1.3c0.7,0.4,1.4,0.6,2.2,0.8
				c-0.3-0.1-0.6-0.1-1-0.2c1.8,0.5,4.1,0.9,6.9,0.5C429.7,414.9,415.8,413.4,412.7,411.5z M430.6,412.3c-0.4,0-0.7-0.1-1.1-0.1
				C429.9,412.3,430.2,412.3,430.6,412.3z M437,411.1c-0.1,0.2-0.4,0.4-0.6,0.5c-1.7,0.5-3.4,0.8-5.2,0.7
				C433.3,412.5,435.5,412,437,411.1z M447.3,397c-0.2,0.1-0.3,0.2-0.5,0.3c-3.3-0.1-4.7-0.9-6.7-2.3
				C442.4,396.1,445,396.8,447.3,397z M448.9,397.1C448.9,397.1,448.9,397.1,448.9,397.1C448.9,397.1,448.9,397.1,448.9,397.1
				C448.9,397.1,448.9,397.1,448.9,397.1z"/>
			<path fill="#231F20" d="M467.1,379.8c-0.1-0.3-0.2-0.6-0.3-0.9C466.9,379.2,467,379.5,467.1,379.8z"/>
			<path fill="#231F20" d="M426.2,411.1c-1.1-0.5-1.7-1-1.7-1C425,410.5,425.6,410.8,426.2,411.1z"/>
			<path fill="#231F20" d="M428.3,412c-0.1,0-0.1,0-0.2-0.1C428.2,411.9,428.2,411.9,428.3,412z"/>
			<path fill="#231F20" d="M428.1,411.9c-0.6-0.2-1.1-0.4-1.6-0.6C427.1,411.5,427.6,411.7,428.1,411.9z"/>
			<path fill="#231F20" d="M426.6,411.3c-0.1-0.1-0.3-0.1-0.4-0.2C426.3,411.2,426.4,411.2,426.6,411.3z"/>
			<path fill="#231F20" d="M447.2,391.8c-0.2-0.1-0.4-0.1-0.4-0.1C446.9,391.7,447,391.7,447.2,391.8z"/>
			<path fill="#231F20" d="M433.5,402.4c-0.5-0.1-0.8-0.3-0.8-0.3C433,402.2,433.2,402.3,433.5,402.4z"/>
		</g>
	</g>
	<path fill="#231F20" d="M514.8,349.6c0.1-0.1,0.2-0.2,0.3-0.3C515.1,349.3,515,349.4,514.8,349.6z M422.1,369.9
		c0.1-0.1,0.2-0.1,0.3-0.2c-4.2,2.9-7.3,5.5-9.3,7.4c6.3-6.7,16.3-15.4,29.8-21.4c-1.5,0.3-3.1,0.6-4.4,1.2c1.2-0.6,2.4-1.1,3.8-1.6
		c1.1-0.4,2.7-0.8,4.3-1.1c0.4-0.2,0.9-0.3,1.4-0.5c-1.8,0.1-4.1,0.4-4.9,1.1c1.4-1,4.8-1.5,7-1.8c0,0,0.1,0,0.1,0
		c0.5-0.2,1-0.3,1.5-0.5c-0.1,0-0.3,0-0.4,0l0,0c0.2,0,0.3,0,0.5,0c1-0.3,2.1-0.6,3.1-0.9c-2.3,0.1-4.7,0.5-7.5,1.5l0,0
		c1.8-0.7,3.5-1.1,5.2-1.4c0.7-0.4,1.4-0.7,2.3-0.9c-0.7,0.2-1.5,0.5-2.3,0.9c1.2-0.2,2.4-0.3,3.6-0.4c0.4-0.1,0.7-0.2,1.1-0.3
		c1-0.2,2-0.5,3-0.7c-1.8,0-3.7,0.1-5.4,0.5c1.3-0.4,2.5-0.7,4-1c1.4-0.2,3.5-0.5,5.4-0.5c0.3-0.1,0.6-0.1,0.9-0.2
		c-1.9-0.3-4.5-0.3-5.5,0.2c0.1-0.1,0.3-0.1,0.5-0.2c0,0-0.1,0-0.1,0c0.7-0.4,1.5-0.6,2.4-0.7c-0.7,0.2-1.3,0.4-2,0.6
		c1.7-0.5,4.6-0.4,6.4-0.5c0.2,0,0.3,0,0.5,0c0.3-0.1,0.5-0.1,0.8-0.2c-1.8-0.2-3.9-0.3-5.7,0c1.3-0.3,2.6-0.5,4.1-0.6
		c1.4-0.1,3.5-0.2,5.3,0c0.3,0,0.6-0.1,0.9-0.1c-1.8-0.4-4.3-0.6-5.4-0.2c1.6-0.6,5-0.3,7.2-0.1c0.1,0,0.2,0,0.3,0
		c1.1-0.1,2.2-0.2,3.4-0.3c0.1-0.1,0.3-0.1,0.4-0.2c1.2-0.4,2.9-1,4.3-1c-0.9,0.1-2.1,0.5-3,1.1c0.2,0,0.4,0,0.7,0
		c1.2-0.4,2.8-0.7,3.8-0.8c1.1-0.1,2-0.1,3,0c-1.2,0-2.5,0.4-3.6,0.8c0.6,0,1.1,0,1.7,0c0.9-0.2,1.9-0.5,2.9-0.7
		c-0.3-0.1-0.6-0.1-0.9-0.1c0.4,0,0.7,0,1.1,0.1c1.1-0.2,2.1-0.3,2.8-0.1c-0.6-0.1-1.5,0-2.5,0.2c0.2,0,0.3,0.1,0.5,0.1
		c-0.2,0-0.4-0.1-0.6-0.1c-0.7,0.2-1.3,0.4-2,0.6c0.4,0,0.8,0,1.2,0c1.4-0.3,2.9-0.5,4-0.6c0.3-0.3,0.6-0.6,0.8-0.9
		c-0.1,0.3-0.3,0.6-0.7,0.9c0,0,0.1,0,0.1,0c1.5-0.2,2.8-0.2,4.1-0.1c-1.7,0-3.5,0.4-5.2,0.9c0,0,0,0,0,0c0,0,0,0-0.1,0
		c0.8,0.1,1.5,0.1,2.4,0.2c0.1-0.1,0.1-0.2,0.2-0.3c0,0.1-0.1,0.2-0.1,0.3c0,0,0,0,0,0c1.6-0.2,3.2-0.4,4.6-1
		c-0.6-0.1-1.2-0.2-1.8-0.2c0.7,0,1.3,0,1.9,0.2c0.4-0.1,0.7-0.3,1.1-0.5c0,0,0,0,0,0c0,0,0,0,0,0c0,0,0,0,0,0c0,0,0,0,0,0
		c0,0.3-0.7,1.1-1.5,1.9c0.3,0,0.6,0.1,1,0.1c0.4-0.1,0.8-0.2,1.1-0.3c0.6-0.6,1.2-1.3,1.8-2c-0.2,0.5-0.6,1.1-1,1.6
		c0.7-0.4,1.5-0.8,2-1.3c-0.7,0.5-1.6,1.6-2.3,2.1c2,0,5.2-0.4,6.4-1.4c-0.6,0.7-1.6,1.2-2.5,1.6c0.7,0,1.3,0,2-0.1
		c0.4-0.2,0.7-0.4,1.1-0.6c-0.3,0.2-0.7,0.4-1,0.6c1.5-0.2,3-0.6,4.4-1.1c-1.4,0.9-2.9,1-4.4,1.5c1.5,0.3,3.2-0.4,4.5-0.9
		c-1.1,0.8-2,1.2-2.8,1.4c0.1,0,0.2,0,0.3,0c0.9-0.2,1.3-0.3,2.2-0.5l0,0.1c-0.6,0-1.2,0.2-1.8,0.4c1.5,0,3.4-0.2,4.2-0.6
		c-0.7,0.4-2.5,1.1-3.4,0.9c1.6,0.4,2.8,0.4,3.7,0.2c0.4-0.4,0.8-0.7,1-1c-0.3,0.4-0.6,0.7-0.9,1c0.5-0.1,1-0.2,1.4-0.4
		c-0.6,0.3-1.1,0.5-1.6,0.6c-0.1,0.1-0.1,0.1-0.2,0.2c1.1,0.1,1.7-0.2,2-0.4c-2.8,3-5.6,4.5-8.9,5.1c-0.7,0.3-1.4,0.5-2.1,0.6
		c1.4,0,2.8-0.1,4-0.5c1.3-0.4,2.5-1.1,3.7-2c0.7-0.6,1.5-1.1,2.2-1.7c-1.3,1.2-3.1,3.1-4.8,3.5c3.4-0.8,6.7-3.7,8.4-5.5
		c-1.7,2-3.7,3.6-5.4,4.7c-1.7,1.1-3.8,1.8-5.8,1.9l0-0.1c-1,0.2-2.1,0-3.1-0.2c-1.4,0.3-2.8,0.4-3.9,0.5c0.5-0.2,1.8-0.4,2.6-0.6
		c-2,0.3-4.6,1-6.6,1c0.7-0.2,2.3-0.5,3.5-0.9c-0.5,0.1-0.9,0.3-1.4,0.3c-0.9,0.2-2.2,0.3-3.4,0.3c0.8-0.2,1.5-0.3,2.2-0.4
		c-1.5,0.3-3,0.5-3.4,0.6c1.3-0.5,2.8-0.9,4.3-1.4c-2.5,0.1-5,0.4-7.2,1.4c0.6-0.2,1.7-0.8,2.3-1.1c-0.6,0.1-1.3,0.3-2,0.4
		c0.2-0.1,0.4-0.1,0.6-0.2c-0.1,0-0.2,0-0.3,0.1c0.2-0.1,0.4-0.2,0.5-0.3c-0.8,0.1-1.7,0.2-2.6,0.3h-0.2c1-0.2,1.8-0.4,2.5-0.7
		c-0.1,0-0.2,0-0.3,0c-2.1,0.4-4.1,1-5.9,1.9c1.4-0.8,3-1.4,4.4-2.2c0,0-0.1,0-0.1,0c-0.9,0.3-1.8,0.5-2.7,0.7
		c0.7-0.3,1.2-0.6,2-0.9c0,0-0.1,0-0.1,0c-0.5,0.1-1,0.2-1.5,0.3c-0.6,0.4-1,0.9-1.5,1.3c0.2-0.2,0.8-0.7,1.3-1.2
		c-0.6,0.1-1.1,0.3-1.6,0.5c-0.8,0.4-1.6,0.9-2,1.4c0.5-0.6,0.9-0.8,1.6-1.2c-0.7,0.3-1.5,0.6-2.1,1c0.9-0.5,2.3-1.3,3.8-1.9
		c0.1-0.1,0.2-0.1,0.4-0.2c-1.1,0.3-2.2,0.8-3.2,1.3c0.3-0.4,0.8-0.7,1.3-1.1c-0.7,0.2-1.1,0.6-1.6,1.1c-0.2,0.2-0.3,0.4-0.5,0.7
		c0.1-0.1,0.2-0.3,0.3-0.4c-0.1,0.1-0.3,0.3-0.5,0.4c0.5-0.8,0.5-1.8-0.1-2.5c-0.1,0.6-1.3,0.6-0.3,1.7c-0.4-0.3-1.3-0.7-2.1-1.2
		c0.6,0.6,1,0.9,2.6,1.6c-1-0.3-2.1-0.8-3-1.4c-0.1,0.1-0.1,0.1-0.2,0.2c0.3,0.2,0.6,0.4,0.8,0.5c-0.3-0.1-0.6-0.3-0.9-0.4
		c-0.1,0.1-0.3,0.3-0.4,0.4c0.8,0.4,1.6,0.8,2.4,1.1c-0.8-0.1-1.7-0.4-2.6-0.8c0,0-0.1,0.1-0.1,0.1c0.5,0.1,0.9,0.3,1.4,0.4
		c-1.6,0.1-3-0.8-4.7-1.2c-0.6-0.1-1-0.4-1.6-0.7c-0.4,0-0.9,0.1-1.3,0.1c1,0.8,2.4,1.4,3.8,1.8c-0.4-0.1-0.8-0.2-1.2-0.2
		c0.1,0,0.2,0.1,0.2,0.1c-1.6-0.3-3.1-0.9-4.7-1.5c-0.3,0-0.6,0.1-1,0.1c1.7,0.7,3.3,1.4,4.8,2.4c-1-0.5-2.4-1-3.8-1.4
		c0.3,0.2,0.5,0.3,0.8,0.5c-0.5-0.2-0.9-0.5-1.4-0.7c-0.8-0.2-1.6-0.3-2.4-0.5c0.2,0.1,0.4,0.3,0.5,0.4c0.4,0.2,0.8,0.4,1.1,0.7
		c-0.1,0-0.2,0-0.3-0.1c0.1,0.1,0.1,0.1,0.2,0.2c-0.1-0.1-0.1-0.1-0.2-0.2c-1.5-0.4-3-0.7-4.5-0.7c-0.2,0-0.4,0.1-0.7,0.1
		c1.2,0.4,2.4,0.8,3.7,1.4c-1.3-0.3-2.7-0.7-4.1-1.1c0.5,0.2,0.9,0.5,1.4,0.7c0.3,0.1,0.6,0.2,0.8,0.3c-0.2,0-0.3,0-0.5-0.1
		c0,0,0.1,0.1,0.2,0.1c-0.1,0-0.3-0.1-0.4-0.1c-0.6-0.1-1.3-0.2-1.9-0.3c0.7,0.3,1.4,0.7,2.1,1.1c-0.8-0.3-1.5-0.6-2.4-0.9
		c-0.2-0.1-0.4-0.1-0.7-0.1c0.8,0.2,1.5,0.5,2.1,0.7c-0.9-0.4-2-0.6-3.1-0.7c0.8,0.3,1.6,0.9,2.1,1.3c-1-0.9-2.8-1.2-4.4-1.4
		c-0.1,0-0.3,0-0.4,0.1c0.6,0.1,1.1,0.3,1.7,0.5c-0.3,0-0.5,0-0.8-0.1c0.2,0.1,0.4,0.2,0.6,0.3c-0.4-0.2-0.9-0.3-1.3-0.3
		c-0.4,0-0.9-0.1-1.3-0.1c0,0-0.1,0-0.1,0c0,0-0.1,0-0.1,0c1.6,0.5,3.3,0.9,4.9,1.4c-2.4-0.7-5.1-0.9-7.7-0.8
		c0.7,0.2,1.1,0.5,1.7,0.7c-0.8-0.1-1.4-0.1-2.2-0.1c0.2,0.1,2.1,0.6,3,0.8c-1-0.3-2.1-0.4-3.1-0.5c0.6,0.3,1.3,0.6,1.9,1
		c-0.9-0.3-1.6-0.6-2.5-0.8c-0.5-0.1-1.1-0.1-1.6-0.1c-0.2,0-0.4,0-0.6,0c0.6,0.2,1.2,0.5,1.8,0.9c0.7,0.2,1.3,0.5,1.8,0.7
		c-0.5-0.2-1-0.4-1.5-0.5c0.3,0.2,0.5,0.4,0.7,0.6c-0.3-0.3-0.6-0.5-1-0.6c-1.4-0.3-2.8-0.5-4.2-0.5c-0.1,0-0.2,0-0.3,0
		c0.9,0.1,1.5,0.4,2.2,0.6c-0.2,0-0.4,0-0.6-0.1c0.2,0.1,0.4,0.2,0.6,0.3c-0.7-0.3-1.5-0.3-2.2-0.3c1.4,0.4,2.8,0.8,4.1,1.3
		c-1.9-0.6-4-0.9-6.1-1c-0.1,0-0.2,0-0.2,0c1,0.4,1.9,1,2.7,1.3c-0.9-0.4-1.9-0.7-2.9-0.9c0.2,0.1,0.3,0.2,0.5,0.2
		c-0.8-0.1-1.4-0.1-2.2-0.2c0.2,0.1,2.1,0.7,3,0.9c-1-0.3-2.1-0.5-3.2-0.6c1.4,0.2,2.6,0.5,3.7,0.8c-3.7-0.1-6.7,0.1-10.3,1
		c-0.2,0.1-0.5,0.2-0.7,0.3c1.7-0.3,3.6-0.5,5.3,0.1c-0.9-0.2-4.9,0.5-9.5,2.3c-0.6,0.1-1.2,0.3-1.8,0.5c-0.9,0.5-1.8,1-2.7,1.5
		c1.5-0.8,3-1.5,4.4-2c1.8-0.5,3.4-0.7,4.6-0.6c0.1,0-1.3,0.1-3.2,0.5c-2.4,0.6-4.5,1.4-6.3,2.4c-1.4,0.9-2.8,1.7-4.1,2.6
		C422.4,369.7,422.2,369.8,422.1,369.9z M499,345.8c-0.2,0.1-0.5,0.3-0.7,0.5c0.1,0,0.2,0,0.2,0c-0.1,0-0.2,0-0.2,0
		c-0.5,0.4-1,0.9-1.4,1.3c0.1,0,0.2,0,0.3,0C498.1,347,499,346.2,499,345.8z M512.8,349.9c-0.1,0-0.3,0.1-0.4,0.1c0.1,0,0.2,0,0.3,0
		C512.7,350,512.7,349.9,512.8,349.9z M489.3,354.3c0,0,0.1,0,0.1-0.1C489.3,354.3,489.3,354.3,489.3,354.3
		C489.2,354.3,489.3,354.3,489.3,354.3z M488.4,354.2c0.1,0,0.2-0.1,0.3-0.1c-0.1,0-0.3,0.1-0.4,0.1
		C488.3,354.2,488.3,354.2,488.4,354.2z M479.1,354.1c-0.3-0.2-0.5-0.3-0.8-0.5c-0.1,0-0.1,0-0.2,0c0.3,0.2,0.6,0.5,0.9,0.7
		C479,354.2,479,354.2,479.1,354.1z M478.8,354.4c-0.3-0.1-0.5-0.3-0.7-0.4c-0.2-0.1-0.4-0.3-0.5-0.4c-0.4,0-0.7,0-1.1,0.1
		c0,0,0.1,0.1,0.1,0.1c0.6,0.4,1.2,0.8,1.8,1.2C478.6,354.7,478.7,354.6,478.8,354.4z M478.3,355.4c0,0,0.1-0.1,0.1-0.1
		c-1.1-0.4-2.3-0.9-3.3-1.5c-0.2,0-0.3,0-0.5,0C475.7,354.4,476.9,355,478.3,355.4z M461.6,355.3
		C461.6,355.3,461.5,355.3,461.6,355.3c0,0,0.2,0.1,0.3,0.1C461.8,355.4,461.7,355.4,461.6,355.3z M482.7,345.8c0.2,0,0.5,0,0.7,0
		C483.2,345.7,483,345.7,482.7,345.8z M436.2,358.2c0.8-0.5,1.5-0.9,2.2-1.3C437.5,357.3,436.8,357.7,436.2,358.2z M483.2,355.3
		C483.3,355.3,483.3,355.3,483.2,355.3C483.3,355.3,483.2,355.3,483.2,355.3C483.2,355.4,483.2,355.4,483.2,355.3z M493.4,346.8
		c0,0,0,0.1-0.1,0.1C493.3,346.9,493.3,346.9,493.4,346.8L493.4,346.8z M492.5,345.2c0,0-0.1,0.1-0.1,0.1
		C492.5,345.3,492.5,345.3,492.5,345.2L492.5,345.2z M480.6,355.2c-0.1,0-0.4-0.1-0.6-0.2C480.2,355.1,480.4,355.1,480.6,355.2z"/>
	
		<linearGradient id="SVGID_3_" gradientUnits="userSpaceOnUse" x1="1497.2539" y1="352.7881" x2="1749.7014" y2="352.7881" gradientTransform="matrix(-1 0 0 1 1996 0)">
		<stop  offset="0" style="stop-color:#030303"/>
		<stop  offset="1" style="stop-color:#000000"/>
	</linearGradient>
	<path fill="url(#SVGID_3_)" d="M498.7,205.3c0,0,1.9,237.2-190.1,297.4c0,0,159.8-60.2,170.9-216.1c0,0-64.1,219.4-172.4,215.9
		c-4-0.1-19.6,7.1-23.8,6.3c-69.3-12.8-33.9-187.3,43.7-270.2c52-55.5,154.6-42.1,170.9-35.6"/>
	<path fill="#E6D0A1" enable-background="new    " d="M577.7,452.1c2.9-0.1,7.5-2.3,4-4.5c-3.1-2-9.4-0.4-12.1,1.4
		c-3.9,2.7-10.1,9.5-11.1,13.7c1,0.9,6.3-4,8.5-6C569.3,454.6,573.1,453.3,577.7,452.1"/>
	<path fill="#231F20" d="M468.5,147.8c-8.5-14.9-27.3-37.4-44.4-41.4c9.4,3.8,17,14.9,18.1,24.9c-17.6-16.9-38-32.1-63.1-31.6
		c6.4,15.2-34.9,16.1-43.9,18.2c-18.5,4.4-35.4,16.5-51.8,26.5c-17.3,10.5-35.1,17.1-32.2,37.9c2.5,17.6-2.5,34.1-14.6,47.4
		c-10,11-24.9,18.9-37.4,27c-15.3,10-29.5,8.6-47.8,9.7c-0.9,0.9-3.5,4.3-4.3,5.6c10.4,3.8,20.7,8.7,32.5,8.3
		c-10.6,6.3-21.5,6.8-33.7,6.6c0.1,0.4,0.8,4.3,0.9,4.4c11.2,1.3,23.5,7.1,34,10.6c-6.2,2-12.6,1.1-18.8-0.1c1.8,1,2.9,2.2,4.1,3.3
		c-7.2,1.2-13.1-2-19-5.3c14.8,14.1,37,9.5,55.5,13.6c-17.5,7.2-43.7,5-53.5,0.2c3.1,6.4,6.9,16.3,2.4,22.5
		c4.5,2.8,13.4,9.6,14.8,15.2c3.2,12-4.9,10.4,6.9,19.9c7.5,6.1,15.7,15.3,24.1,19.6c12.6,6.4,22.9-5.1,34.5-11.8
		c9.6-5.5,17.8-12.8,26.7-19.5c15.7-11.8,33.6-18.9,51.6-26.8c27.3-12,52.6-26.3,77-43.1c16.2-11.1,23.3-21.7,34.4-37.3
		c12.3-17.3,14.1-33.3,21-52.9c4.2-11.9,10.8-41.4,23.9-45.6c1.9-2.1-0.3-0.4-0.1,0"/>
	<g>
		<path fill="#FFFFFF" d="M605.3,348.4c2.3,8.5-4.6,14.4-9.4,17.7c-4.3,2.9-7.3,4.2-17.2,5.5c-3.4,0.5-7.8,3-10.8,3.5
			c-2.8,0.8,1.5-12.6,4.3-16.8c4.3-6.5,8.1-9.8,14.4-12.4c5.3-2.3,14.1-3.8,18.2,2.3"/>
		<path fill="#2B1A0F" d="M591.1,345.7c5.9,2.5,7,18.6,1.5,22.6c-2.7,2-1.5,1.9-6.3,2.2c-2.8,0.1-10,2.7-12.9,2.5
			c-4.4-0.4-3.6-4-3.9-8.6c3.2-8.8,12.9-18.3,19.4-17.6"/>
		<path fill="#F0F0F0" d="M582.1,354.1c3.6-0.9,4.7,7.6,0.9,8.9C579,364.4,576.9,355.4,582.1,354.1"/>
		<g>
			<path fill="#231F20" d="M599,366.3c1.4-0.9,3.8-3.3,5-5.6l0.1,0.5c1.3,0.8,2,2.9,2.8,4.4c-0.9-1.1-1.7-2.5-2.8-2.9
				c0.5,0.6,0.9,1.7,1.2,2.6c-0.6-1.2-1.4-2.2-2.6-2.4c1.6,2.1,2.6,3.6,3.8,7c-1.5-3.7-3.6-5.9-5.8-5c1,1.1,1.9,2.1,2.3,3.6
				C602.4,366.4,600.4,366.1,599,366.3z"/>
			<path fill="#231F20" d="M595.2,368.7c0.9-0.4,2.7-1.8,3.2-1.8c1.4,1.3,2,3.9,2.2,6c-0.3-2.1-1.4-4.7-3-4.6
				c0.5,0.7,0.8,1.6,1.1,2.5c-0.4-1-1.3-3.3-2.2-2.1c2,1.8,3.7,6.5,4,9.2c-0.6-3-2.2-8.7-5.4-8c0.3,0.8,0.7,1.9,0.8,2.9
				c-0.3-1.4-1.4-2.6-2.5-2.6c1.1,2,2,2.6,2.4,6.7c-0.7-4.6-2.9-6.2-4.9-6.5C591.9,370,593.9,369.2,595.2,368.7z"/>
			<path fill="#231F20" d="M598.5,366.9c0,0-0.1,0-0.1,0c0,0-0.1-0.1-0.1-0.1L598.5,366.9z"/>
			<path fill="#231F20" d="M582.3,371.9l-0.4,0.2c0.4,0.8,0.7,1.6,0.6,2.7c-0.3-0.8-0.6-2.1-1.7-2.3c0.5,0.4,0.6,1.2,0.7,1.9
				c-0.2-0.9-0.9-1.8-1.5-2.3C581.1,372.3,581.7,371.9,582.3,371.9z"/>
			<path fill="#231F20" d="M615.2,337.8c0.2-0.5,0.4-0.9,0.6-1.4C615.6,336.9,615.4,337.4,615.2,337.8z"/>
			<path fill="#231F20" d="M566.7,374.6c0.2-1.5,1.5-5.7,3.9-10.1c1.8-3.3,3.7-6.5,5.8-8.6c5.7-5.8,11.8-8.5,17.2-8.8
				c2.1-0.1,3.8,0.1,5.4,0.6c0.3,0.4,2.2,0.9,3.4,1.3c1.2,0.5,2.3,1.1,3.4,1.6c0.4,0.2,0.9,0.4,1.4,0.6c0.1,1.4-0.3,3-0.9,4.2
				c-0.1,0-0.2,0.1-0.3,0.1c0.1,0,0.2,0,0.3-0.1c0,0,0,0,0,0.1l0,0c0,0,0,0,0,0c-0.1,0.2-0.2,0.4-0.3,0.6c0,0,0.1,0,0.2-0.1
				c-0.3,1.2-0.8,2.1-1.3,3.2c0.7,0,1.2,0.3,1.6,1c-0.2-0.6-0.4-1.1-0.8-1.6c2,0.5,3.3,2.6,4.2,4.9c-0.9-2.3-1.9-5.5-4-6.2
				c0.7,0,1.2,0.1,1.9,0.6c-0.3-0.4-0.7-0.9-1.1-1c1-0.1,2.5,0.8,2.9,2.2c-0.2-0.8-0.9-1.7-1.5-2.4c-0.3-0.4-0.7-0.6-1-0.8
				c0.8,0.1,1.6,0.6,2.4,1.8c-0.6-1-1.9-2.2-2.9-2.3c2.7-0.6,6.4,2,8,6.5c-1.9-5.5-4.9-6.9-7.1-8.5c0.4,0.1,0.9,0.2,1.6,0.8
				c-0.4-0.7-1-1.2-1.6-1.6c2.9-0.8,4.7,0.1,6.4,3.2c-0.6-1.2-1.4-2.4-2.3-3.4c2,0.2,4,0,5.6-1.1c1.6-1,9.9-6.2,11.5-18.2
				c-2,7.9-6.3,10.7-10.8,12.7c0.4-0.6,0.8-1.2,1.1-1.7c-0.4,0.7-0.8,1.3-1.3,1.8c-0.3,0.1-0.6,0.2-0.8,0.3c1.1-0.7,2-1.9,2.5-3.7
				c-0.6,1.6-1.8,3-3.1,3.9c-0.4,0.2-0.8,0.3-1.2,0.5c0.3,0,0.6-0.2,0.9-0.3c-0.9,0.6-1.9,0.9-2.9,0.9c0.5-0.4,0.9-1,1.5-1.8
				c0.9-1.3,2-3.2,2.6-5.1c0.1-0.3,0.2-0.6,0.4-0.9c0,0.1,0,0.1-0.1,0.2c0,0-0.1,0.2-0.2,0.3c0.3-0.9,0.5-1.9,0.5-2.7
				c-0.1,1.2-0.5,2.5-1.1,3.7c-0.1,0.2-0.3,0.4-0.4,0.6c-0.8,1-1.4,1.6-2.5,2.4c-0.9,0.8-2.5,1.5-4.2,2.1c-0.5-0.1-1-0.4-1.5-0.8
				c2-0.4,4.6-1.8,6.9-7.4c-1.5,3.1-4.1,5.4-6.2,6.1c-0.1,0-0.2,0-0.3,0.1c1.4-1.2,2.8-2.7,3.8-4.7c-0.6,1.1-2,3.2-4.8,4.9
				c-1.4,0.2-2.6,0.2-4-0.2c2.9-1.7,5-5.6,6.1-10c-1,3.1-2.9,7.9-5.9,8.8c0.5-0.7,1-1.5,1.3-2.2c0.4-1.1,0.9-2.4,1-3.7
				c-0.6,2.6-0.9,4-2.8,6.1c-0.3,0-0.6,0-0.9,0c2.4-2.8,4.8-8,4.7-12.5c-0.2,2.9-0.7,5.5-3.4,9c-0.8,1.1-2.2,2.8-4.1,3.3
				c2.1-1.5,2.8-7.4,2.4-12.2c0.1,3.8-0.3,6.4-1.1,8.2c0,0.1,0,0.1-0.1,0.1c0,0,0-0.1,0.1-0.1c-0.1,0.1-0.1,0.2-0.2,0.3
				c0-0.1,0.1-0.1,0.1-0.2c-0.1,0.3-0.3,0.6-0.6,1.1c-0.1,0.1-0.2,0.3-0.3,0.4c1.2-2.7,2.1-6.1,2-9.3c-0.2,4.7-1.4,8.7-4,10.8
				c-0.6,0.2-1.2,0.4-1.8,0.5c0.3-2-0.8-4.5-1-6.6c0.1,2.8-0.7,6.6-2.6,8c1.3-2.3,2.3-8.2-0.2-11.7c2.4,3.8,0.9,8.4-1,10.7
				c0.3-0.5,0.5-1,0.6-1.8c0.5-2.4,0.1-5.2-0.7-7.3c0.7,1.8,1,4.5,0.7,6.6c-0.2,1.2-0.9,2.6-1.9,3.5c1-2.3,1.9-4.9,1.1-10.4
				c0.8,5.6-1.5,9-4.3,9.9c0,0-0.3,0.1-0.6,0.3c0-0.4,0.1-0.9,0.1-1.3c0,0.5-0.1,0.9-0.3,1.4c-0.2,0.1-0.4,0.2-0.6,0.3
				c0-0.3,0.1-0.6,0-0.8c0-0.8-0.1-1.6-0.3-2.4c0.2,1,0.2,2.3,0,3.3c-0.1,0.1-0.3,0.2-0.4,0.2c0.3-1.4,0.4-2.8,0.2-4.9
				c0.2,2-0.1,3.8-0.7,5.3c-0.5,0.3-0.9,0.6-1.4,0.9c0.2-1.5,0.3-3-0.4-5.2c0.4,1.9,0.5,3.8-0.2,5.5c-0.4,0.3-0.8,0.5-1.2,0.8
				c0.1-1,0-2-0.3-3c0.2,1.3,0.2,2.3-0.1,3.3c-2.3,1.7-6.1,5.9-7.8,8.7c-1.6,2.6-3,5-4.8,10.8C567.4,369.4,566.9,371.5,566.7,374.6z
				 M602.2,343.2c0,0.1,0,0.2,0,0.3c-0.1,0-0.1,0-0.2-0.1C602.1,343.3,602.2,343.2,602.2,343.2z M613.4,345.1c0.7-0.6,1.3-1.2,2-1.9
				C614.8,344,614.1,344.6,613.4,345.1z"/>
			<path fill="#231F20" d="M585.6,340.8c-0.1-0.3-0.1-0.6-0.2-0.9C585.4,340.2,585.5,340.5,585.6,340.8z"/>
			<path fill="#231F20" d="M586.8,371.2c0.1,0,0.2,0,0.3-0.1c0.9-0.2,1.9-0.5,2.9-0.6l0.1,0.2c1,0.8,1.4,2.3,1.6,4.3
				c-0.4-2.2-1.3-3.6-2.8-4.1c0.5,0.7,1.7,1.9,2,6c-0.1-1.1-0.7-5.2-2.8-5.7c1.2,0.9,2.2,3.2,2.4,5.2c-0.2-1.5-0.8-2.9-1.5-3.9
				c-0.3-0.4-1.2-1.1-1.9-1.3c-0.1,0-0.2,0-0.3,0.1c0.5,1,0.3,1.4,0.2,2.9c-0.1-1.7-0.7-2.7-2-2.5c0.6,1.1,0.4,2.7,0.4,2.5
				c-0.1-1.5-0.9-2.2-2-2.6C584.8,371.7,585.8,371.4,586.8,371.2C586.9,371.2,586.8,371.2,586.8,371.2z"/>
			<path fill="#231F20" d="M606.3,336.3c0,0.2-0.1,0.3-0.1,0.4c0-0.2,0-0.4,0-0.5L606.3,336.3z"/>
			<path fill="#231F20" d="M617.7,339.5c0.1-0.4,0.3-0.7,0.3-1.1C618,338.1,617.9,338.8,617.7,339.5z"/>
			<path fill="#231F20" d="M619.8,342.3c0.1-0.1,0.1-0.3,0.2-0.4C619.9,342,619.9,342.2,619.8,342.3z"/>
			<path fill="#231F20" d="M620,341.9c0.2-0.5,0.4-1.1,0.5-1.7C620.5,340.2,620.3,340.9,620,341.9z"/>
			<path fill="#231F20" d="M619.1,343.8c0-0.1,0.1-0.2,0.1-0.3C619.2,343.6,619.2,343.7,619.1,343.8z"/>
			<path fill="#231F20" d="M619.3,343.5c0.2-0.4,0.4-0.8,0.6-1.2C619.7,342.7,619.5,343.1,619.3,343.5z"/>
			<path fill="#231F20" d="M612.6,339.3c0.1-0.2,0.2-0.4,0.3-0.6C612.9,338.7,612.8,338.9,612.6,339.3z"/>
		</g>
	</g>
	<g>
		
			<linearGradient id="SVGID_4_" gradientUnits="userSpaceOnUse" x1="1405.3812" y1="308.0356" x2="1405.7217" y2="308.0356" gradientTransform="matrix(-1 0 0 1 1996 0)">
			<stop  offset="0" style="stop-color:#000000"/>
			<stop  offset="1" style="stop-color:#050505"/>
		</linearGradient>
		<path fill="url(#SVGID_4_)" d="M590.3,308.1c0.1-0.1,0.2-0.1,0.3-0.2C590.5,308,590.4,308.1,590.3,308.1z"/>
		
			<linearGradient id="SVGID_5_" gradientUnits="userSpaceOnUse" x1="1404.3929" y1="307.6431" x2="1405.3812" y2="307.6431" gradientTransform="matrix(-1 0 0 1 1996 0)">
			<stop  offset="0" style="stop-color:#000000"/>
			<stop  offset="1" style="stop-color:#050505"/>
		</linearGradient>
		<path fill="url(#SVGID_5_)" d="M590.6,307.9c0.3-0.2,0.6-0.4,1-0.6C591.3,307.5,591,307.7,590.6,307.9z"/>
		
			<linearGradient id="SVGID_6_" gradientUnits="userSpaceOnUse" x1="1405.7217" y1="310.5435" x2="1410.7365" y2="310.5435" gradientTransform="matrix(-1 0 0 1 1996 0)">
			<stop  offset="0" style="stop-color:#000000"/>
			<stop  offset="1" style="stop-color:#050505"/>
		</linearGradient>
		<path fill="url(#SVGID_6_)" d="M586.7,311.2c-0.9,1-1.4,1.8-1.4,1.7c0.3-0.7,1-1.6,1.8-2.5c0.9-0.8,2-1.6,3.2-2.3
			C589.1,308.9,587.9,309.9,586.7,311.2z"/>
		
			<linearGradient id="SVGID_7_" gradientUnits="userSpaceOnUse" x1="1430.4257" y1="321.6606" x2="1430.9208" y2="321.6606" gradientTransform="matrix(-1 0 0 1 1996 0)">
			<stop  offset="0" style="stop-color:#000000"/>
			<stop  offset="1" style="stop-color:#050505"/>
		</linearGradient>
		<path fill="url(#SVGID_7_)" d="M565.6,321.5c-0.2,0.1-0.3,0.2-0.5,0.4C565.2,321.7,565.4,321.5,565.6,321.5z"/>
		
			<linearGradient id="SVGID_8_" gradientUnits="userSpaceOnUse" x1="1436.3076" y1="329.0843" x2="1436.6237" y2="329.0843" gradientTransform="matrix(-1 0 0 1 1996 0)">
			<stop  offset="0" style="stop-color:#000000"/>
			<stop  offset="1" style="stop-color:#050505"/>
		</linearGradient>
		<path fill="url(#SVGID_8_)" d="M559.4,329.3c0.1-0.2,0.2-0.3,0.3-0.4C559.6,329,559.5,329.1,559.4,329.3z"/>
		
			<linearGradient id="SVGID_9_" gradientUnits="userSpaceOnUse" x1="1432.9902" y1="325.2" x2="1434.2378" y2="325.2" gradientTransform="matrix(-1 0 0 1 1996 0)">
			<stop  offset="0" style="stop-color:#000000"/>
			<stop  offset="1" style="stop-color:#050505"/>
		</linearGradient>
		<path fill="url(#SVGID_9_)" d="M563,324.5c-0.5,0.5-0.9,1-1.2,1.4C562.1,325.4,562.5,324.9,563,324.5z"/>
		
			<linearGradient id="SVGID_10_" gradientUnits="userSpaceOnUse" x1="1394.8253" y1="321.4683" x2="1443.5979" y2="321.4683" gradientTransform="matrix(-1 0 0 1 1996 0)">
			<stop  offset="0" style="stop-color:#000000"/>
			<stop  offset="1" style="stop-color:#050505"/>
		</linearGradient>
		<path fill="url(#SVGID_10_)" d="M552.4,338.1c2.2,0.9,4.2,1.3,5.7,1.4c0.6,0.1,1.2,0,1.8-0.1c0,0,0,0,0,0c0,0,0,0,0,0
			c0.8-0.2,1.6-0.5,2.1-1l-0.1-0.1c0.4-0.2,0.7-0.6,0.9-1c0,0,0.1,0,0.1-0.1c-0.1,0.2-0.2,0.4-0.3,0.6c0.3-0.4,0.6-0.7,0.9-1.1
			c0.3-0.3,0.6-0.6,0.9-0.9c0,0,0.1,0,0.1,0c0-0.1,0.1-0.1,0.1-0.2c0.1-0.1,0.2-0.2,0.3-0.3c0,0,0,0,0,0c0.1-0.1,0.1-0.1,0,0
			c0,0,0,0,0,0c0,0,0,0,0,0c0,0,0,0,0,0c0,0,0,0,0-0.1c0.8-0.9,1.5-1.7,1.9-2.4c0,0,0-0.1,0-0.1c0.7-0.6,1-1.4,1.4-2.3
			c0.7-0.9,1.3-1.8,2-2.7c-0.8,1.5-1.7,2.8-2.3,4c1-1.4,3.1-3.5,4.3-6.4c0-0.1,0-0.1,0.1-0.2c0.2-0.3,0.4-0.5,0.7-0.8
			c0,0.8,0,1.6,0.1,2.3c-0.1-0.9,0-1.8,0.3-2.7c0.2-0.3,0.5-0.6,0.7-0.8c-0.6,1.5-1,2.8-0.9,3.8c0.6-2.7,2.4-5.1,4.5-7.9
			c-0.1,0.2-0.1,0.4-0.2,0.6c-0.5,1-0.9,2.1-0.7,3.2c0-0.5,0.8-2.2,2.3-4.4c-0.1,0.5-0.1,0.9-0.2,1.3c0-0.5,0.2-1,0.4-1.6
			c0.2-0.3,0.5-0.6,0.7-0.9c0,0,0,0.1,0,0.1c-0.5,0.9-0.9,1.8-1,2.4c0,0.1,0.2-0.6,0.8-1.6c0,0,0,0.1,0,0.1c0.1-0.2,0.2-0.4,0.3-0.6
			c0.3-0.6,0.7-1.1,1.1-1.5c0,0.1-0.1,0.3-0.1,0.4c0.1-0.3,0.3-0.6,0.5-0.9c0.5-0.6,1-1.1,1.4-1.6c-0.4,0.4-0.9,0.8-1.3,1.3
			c0.5-0.8,1.2-1.5,1.8-2.2c-0.2,0.3-0.3,0.5-0.5,0.8c0,0-0.1,0.1-0.1,0.1c0,0,0.1-0.1,0.1-0.1c-0.2,0.5-0.4,0.9-0.5,1.4
			c0.2-0.5,1.3-2,3.1-3.6c0.1-0.1,0.2-0.2,0.3-0.3c-0.1,0.1-0.2,0.2-0.3,0.2c0.4-0.4,0.9-0.8,1.4-1.2c0.8-0.9,1.8-1.7,2.8-2.4
			c0.6-0.3,1.2-0.5,1.7-0.7c0,0,0,0-0.1,0c0,0,0.1,0,0.1,0c3.1-1,6.3-0.6,9.5,2l-2.4-2.2c0,0,0,0,0,0c0,0,0,0,0,0l-0.1-0.1
			c-4-3.3-8.4-3.4-12.7-1.6c1-0.8,2.1-1.6,3.1-2.1c-1,0.4-1.9,0.8-2.9,1.4c-0.9,0.5-2.2,1.4-3.3,2.2c-0.3,0.2-0.6,0.3-0.9,0.5
			c1-1.1,2.6-2.4,3.4-2.6c-1.3,0.3-3.4,2.1-4.7,3.2c-0.5,0.4-1,1-1.6,1.5c-0.5,0.4-0.9,0.7-1.4,1.1c0,0-0.1,0-0.1,0.1
			c0,0,0.1-0.1,0.1-0.1c1.2-1.4,2.8-3,3.6-3.7c-1.9,1.5-4.2,3.2-5.3,4.5c-0.4,0.5-1,1.2-1.5,2c0,0.1-0.1,0.2-0.1,0.2
			c-1.7,1.6-3.2,3.3-4.7,5c0.9-1.9,2.1-4,4.4-5.4c-2,1.1-2.8,2-4,3.5c-0.4,0.5-1,1.2-1.5,1.9c0,0-0.1,0.1-0.1,0.1c0,0,0.1,0,0.1-0.1
			c-0.7,1.1-1.4,2.3-1.5,3.2c0,0,0,0,0,0c-0.1-0.4,0.1-1.1,0.3-1.8c0.3-0.5,0.7-1,1.1-1.4c-0.3,0.3-0.6,0.5-0.9,0.8
			c0.4-1.1,1.1-2.1,1.7-2.5c-0.9,0.5-1.8,2-2.5,3.3c-0.2,0.2-0.4,0.4-0.6,0.7c-1,1.3-2.9,3.7-3,5.3c-0.2-1,0.7-3.4,1.8-4.5
			c-1.3,1.3-2.9,4.6-3.5,5.9c-0.9,2.1-1,3-1,3.5c-0.1,0.1-0.1,0.2-0.2,0.3c0-0.2,0-0.4,0-0.6c0.1-1.4,0.4-3.4,1.3-4.9
			c-0.6,0.8-1,1.5-1.5,2.5c-0.6,1.2-1.4,3.5-1.2,4.8c0,0,0,0-0.1,0.1c-0.4-0.9-0.3-2.9,0.3-4c-1.2,1.6-3.7,7-4.1,8.2
			c-0.1,0.3,0.6,0.6,1.8,0.7c-0.1,0.1-0.2,0.1-0.2,0.2c-0.5-0.1-1-0.2-1.5-0.3c0.2,0.1,0.5,0.2,0.8,0.2c-0.2,0-0.5,0-0.7-0.1
			c0.3,0.1,0.5,0.1,0.7,0.1c0.1,0,0.3,0.1,0.4,0.1c-0.1,0.1-0.2,0.1-0.2,0.2c0.1,0,0.2-0.1,0.3-0.1c1.2,0.3,2.5,0.6,3.3,0.3
			C558,339.7,554.4,338.8,552.4,338.1z M558.1,338.6c0.6,0,1.2,0,1.7,0c0.4,0,0.8-0.2,1.2-0.3c0,0,0,0,0,0c-0.1,0-0.2,0.1-0.3,0.2
			C559.9,338.7,559,338.7,558.1,338.6z M561.6,337.6c-0.3,0.1-0.5,0.2-0.8,0.2C561,337.7,561.3,337.6,561.6,337.6
			C561.6,337.5,561.6,337.6,561.6,337.6z M561.8,337.4C561.8,337.5,561.8,337.5,561.8,337.4C561.8,337.5,561.8,337.5,561.8,337.4
			C561.8,337.4,561.8,337.4,561.8,337.4z M561.4,337.8c-0.4,0.2-0.9,0.3-1.4,0.4c0.1-0.1,0.2-0.2,0.3-0.2
			C560.7,338,561.1,338,561.4,337.8C561.4,337.8,561.4,337.8,561.4,337.8z M561.1,338.3C561.1,338.3,561,338.3,561.1,338.3
			C561,338.3,561.1,338.3,561.1,338.3C561.1,338.2,561.1,338.2,561.1,338.3C561.1,338.3,561.1,338.3,561.1,338.3z M557.5,338.2
			c0.6,0,1.3,0,2.1-0.2c0.2,0,0.3,0,0.5,0c-0.1,0.1-0.1,0.2-0.2,0.2c-0.9,0.2-1.8,0.2-2.7,0.2c-0.1,0-0.1,0-0.2,0
			C557.2,338.4,557.4,338.3,557.5,338.2z M581,316.1c0.1-0.2,0.2-0.4,0.4-0.6c0,0.1-0.1,0.2-0.1,0.3
			C581.2,315.9,581.1,316,581,316.1z M567.3,332.1c0-0.1,0.1-0.2,0.1-0.3c0.1-0.1,0.2-0.2,0.3-0.4
			C567.5,331.7,567.4,331.9,567.3,332.1z M563.2,336.8C563.3,336.8,563.3,336.8,563.2,336.8c0.1-0.1,0.2-0.1,0.2-0.2c0,0,0,0,0,0.1
			C563.4,336.7,563.3,336.8,563.2,336.8z"/>
		
			<linearGradient id="SVGID_11_" gradientUnits="userSpaceOnUse" x1="1404.9827" y1="303.0451" x2="1406.8843" y2="303.0451" gradientTransform="matrix(-1 0 0 1 1996 0)">
			<stop  offset="0" style="stop-color:#000000"/>
			<stop  offset="1" style="stop-color:#050505"/>
		</linearGradient>
		<path fill="url(#SVGID_11_)" d="M589.1,303.4c0.6-0.3,1.3-0.5,1.9-0.6C590.3,302.9,589.7,303.1,589.1,303.4z"/>
	</g>
	
		<linearGradient id="SVGID_12_" gradientUnits="userSpaceOnUse" x1="1532.5068" y1="421.7907" x2="1708.7837" y2="421.7907" gradientTransform="matrix(-1 0 0 1 1996 0)">
		<stop  offset="0" style="stop-color:#000000"/>
		<stop  offset="1" style="stop-color:#0A0A0A"/>
	</linearGradient>
	<path fill="url(#SVGID_12_)" d="M463.5,321c0,0-37.9,201.6-157.9,201.6l-3.8-2.3c0,0,108.1,21.5,155.6-190.8
		c0,0-40.6,212.7-164,182.4l-6.1-10c0,0,110.4,54.4,160.9-169.4L463.5,321z"/>
	
		<linearGradient id="SVGID_13_" gradientUnits="userSpaceOnUse" x1="1642.4882" y1="528.2685" x2="1678.1173" y2="528.2685" gradientTransform="matrix(-1 0 0 1 1996 0)">
		<stop  offset="0" style="stop-color:#000000"/>
		<stop  offset="1" style="stop-color:#050505"/>
	</linearGradient>
	<path fill="url(#SVGID_13_)" d="M350.1,506.5c-3.8,7.3-6.6,23.7-9.8,31.6c-2.2,5.4-3.1,11-7.7,14.1c-12,8.1-15.8-29.5-14.4-37.1
		c0.3,6.7,3.2,35.7,15.9,30.3c5.7-2.4,7.8-30.9,8.9-36.9c-4.6,9.8-4.2,23-10.3,29.9c-11.5,12.7-12.9-9.7-13.3-18.9
		c3.6,8.7,3,29.3,13.8,15.2c5.6-7.2,7.7-22.4,7.9-31.4c4.3,0.9,8.9,2.8,12.5,4.4"/>
	<linearGradient id="SVGID_14_" gradientUnits="userSpaceOnUse" x1="124.8952" y1="191.8824" x2="358.6021" y2="191.8824">
		<stop  offset="0" style="stop-color:#050505"/>
		<stop  offset="1" style="stop-color:#000000"/>
	</linearGradient>
	<path fill="url(#SVGID_14_)" d="M308.7,136.3c-7.5-2.2-16.6-14.2-24.1-19.8c-9.3-7-20-10.6-30.8-14.9c-22.4-9.1-48.3-13.3-71-3.2
		c-17.2,7.5-26.2,20.4-24.7,18.4c27.3-25.9,46.3-23,55.2-21.6c16.4,2.6,25,10.3,31.3,14.1c15.7,9.3,12.4,7.2,27,17.8
		c-25.7-15.2-39.9-29.5-71-27.6c-24.6,1.5-55.8,18.4-60.4,45.1c-1.1,4.6-2.9,18.1-2.9,21c8.3-32.2,42-38.6,56.3-38.6
		c20.1,0.1,39.5,8.6,58.2,13.9c-27.6-16.3-77-10.9-102.5,7.4c-6.1,4.4-12.9,12.6-17.2,19c-4.3,6.3-6.1,14.3-6.9,22.4
		c-1.7,16.4,1.4,27.6,13.8,37.4c-11.2-9.5-11.3-28.8-7.5-41.4c6.1-19.9,35.3-31.3,54.8-29.9c-34.9,6.2-65.8,27-46.8,68.4
		c-13.2-31,2.9-50,20.1-56.3c11.2-4.1,54.3-2.4,36.5,18.1c-10.1,11.6-31.9,20.4-46.2,25c-8.5,2.8-19.7,1.5-18.4,11.5
		c1.4,10.4,13.1,9.2,21.5,11.8c2.8,0.9,5.9,1.6,9,2c-6.8,2.9-19,1.8-25.6-1c4.8,10.2,25.8,11.8,35.1,16.9
		c-7.9-0.1-14.8,2.8-22.5,0.2c13.3,6.1,3.3,13.8-5.7,16.2c-0.9,7.1,6.6,6.5,8,9.2c1,2,0.6,3.3,0.5,3.6c-0.9,1-11.8,1.5-3,10
		c19.2-1,35.1,0.1,53.9-4.4c16.9-4,35.4-7.4,51.6-16.1c22.8-12.1,46.3-21.3,65.6-38.9c7-6.4,12.9-14.3,19.5-20.9
		c4-4,17.6-13.4,18.7-19.3c3.4-18.5-42.7-41.2-50.9-56.6"/>
	
		<linearGradient id="SVGID_15_" gradientUnits="userSpaceOnUse" x1="1577.8929" y1="112.3606" x2="1773.5436" y2="112.3606" gradientTransform="matrix(-1 0 0 1 1996 0)">
		<stop  offset="0" style="stop-color:#000000"/>
		<stop  offset="1" style="stop-color:#050505"/>
	</linearGradient>
	<path fill="url(#SVGID_15_)" d="M416.7,147.8c7.4-18.1-17-44.4-30.1-57.2c-17.2-16.7-41.4-30.1-65.3-30.2
		c30.3,2.5,54.3,23.9,60.4,58.1c-9.6-17.8-37.1-55.8-54.6-57.8c-7.8-1.1-26.2-2.1-36.4,3.1c21.8,4.6,38.7,39.5,37.6,59.5
		c-1.6-17.7-25.8-49.5-41.8-56.9c-0.4-0.5-0.3-0.5,0.1-0.1c-9.1-2.3-42.2,10.8-31.9,12.5c14.9,2.6,35,12.7,40.1,28.3
		c-8.7-10.3-15.2-16.8-24-21.1c-9-4.3-17.7-3.1-24.1-4.2c28,11.9,29.1,18,32.8,30.4C271.3,95.7,255,89.2,243.5,85
		c6.7,8.2-13.9,22.3-21.1,23.4c14.9-4.2,27.2,8.7,39.1,16.5c15.8,10.3,25.9,18.6,43.7,19.5c18.5,0.9,37.8,6.1,56.1,10
		c16.9,3.6,34.6,5.6,50.9,10.5c0.8-0.7,1.6-3,1.1-2.2"/>
	<g>
		<path fill="#A91E2D" d="M531.4,847.5c-4.7,9-7.7,17.6-9.2,25.6C525.2,864.3,528.3,855.7,531.4,847.5z"/>
		<path fill="#A91E2D" d="M519.9,879.9c1.4-10.7,4.8-22.6,10.8-35.9l1.8,0.8c1.9-5,3.8-9.8,5.7-14.5c22.9-56.3,12.9-95.3-29.7-116
			c-5.6-2.7-17.1-7.1-32.4-10.1c-97.5-19.3-90.4-43.1-90.4-43.1c-12.1,35.4,42.3,37.8,82.1,44.3c14.2,2.3,34.2,7.4,39.6,10
			c41.4,20,50.9,59.1,28.5,114.1c-15.9,38.9-38.1,91.4-51.7,135.4l-2.8,15.1h6.4l5.4-17C501.5,936.2,510.5,907.2,519.9,879.9z"/>
		<path fill="#E6D0A1" enable-background="new    " d="M370.8,528.3l-9,0c1.2,12,1.6,24.9-2,41.5l4.1,1
			C368,555.9,370.5,540.9,370.8,528.3z"/>
		<path fill="#BE1E2D" d="M239.5,857.5c7.7-55.2,20.7-95.8,55.9-154C311.5,677,336,639,346,617.7c7.9-16.9,13.7-31.8,17.8-46.8
			l-4.1-1c-2.1,9.5-5.4,20.1-10.6,32.5c-14.2,33.5-57.6,90.5-71.7,111.1c-33.4,48.8-41.8,86.6-50.3,133.1
			c-6.9,37.8-0.6,54.3-2.2,115.2c-0.1,5,0.1,11.4,0.4,18.2h5.7c0-0.2,0-0.4,0-0.6C231,941.1,232,911.6,239.5,857.5z"/>
		<path fill="#A91E2D" d="M565.9,961.8c-24.5-19.8-51.6-48.4-43.8-88.7c1.6-8.1,4.6-16.6,9.2-25.6c0.4-0.8,0.8-1.7,1.3-2.5l-0.3-0.1
			l-1.8-0.8c-5.9,13.3-9.4,25.2-10.8,35.9c-5.2,38.5,15.3,62.1,35.7,83.4c4.2,4.4,8.8,10.3,12.9,16.7h13.3
			C576.8,972.6,571.2,966,565.9,961.8z"/>
		<path fill="#A91E2D" d="M327.8,980h6.5c21.6-63.8,29.2-122.4,29.2-138.5C363.6,841.5,349.7,923,327.8,980z"/>
	</g>
	
		<linearGradient id="SVGID_16_" gradientUnits="userSpaceOnUse" x1="1562.1205" y1="543.9205" x2="1608.0098" y2="543.9205" gradientTransform="matrix(-1 0 0 1 1996 0)">
		<stop  offset="0" style="stop-color:#000000"/>
		<stop  offset="1" style="stop-color:#050505"/>
	</linearGradient>
	<path fill="url(#SVGID_16_)" d="M418.5,415.5c-5.6,16.7-10.4,22-2.3,54.3c4.4,17.3,16.1,24,4.8,41.5c-8.7,13.4-26.5,21.8-29.3,38.5
		c-2.3,13.9,24.4,34,32.4,47.8c9.8,16.9,14,32.2,4.2,54.7c-7,16.1-34.6,30.1-40.3,10.1c8.8,17.7,30.7,7.1,38.4-12.2
		c8.5-21.2,2.1-35.7-3.7-47.6c-6.2-12.9-19-23.5-27-35.6c-10.7-16.3-2.5-27.2,9-39.3c17.6-18.5,15.9-34.4,7.2-57.1
		c-3.6-9.4-9-20.3-8.9-30.7c0-4.5,0.8-14.2,2.9-18.2C409.6,414.5,409.7,415.6,418.5,415.5"/>
	
		<linearGradient id="SVGID_17_" gradientUnits="userSpaceOnUse" x1="1577.8232" y1="532.2172" x2="1621.6487" y2="532.2172" gradientTransform="matrix(-1 0 0 1 1996 0)">
		<stop  offset="0" style="stop-color:#000000"/>
		<stop  offset="1" style="stop-color:#050505"/>
	</linearGradient>
	<path fill="url(#SVGID_17_)" d="M401.8,433c-5.9,9.7,6.7,35.6,11.6,44.8c9.1,17.1,4.5,27.9-9.3,39.5
		c-16.5,13.8-27.4,25.1-11.8,44.2c10.5,12.9,22.3,26.7,24.9,43.4c1.2,7.9,1.4,19.8-7.3,24.8c-8.2,4.7-18.2-1.2-14.6-8.1
		c1.1-1.8,3.7-3.4,4.5-3.5c-9.2,5.8,4.8,12,11.5,5.9c6.5-5.9,4.4-16.7,2.5-23.7c-4.5-16.5-13.6-26.6-24.7-39.4
		c-11.1-12.8-17.3-24.9-1.3-35.6c12.1-8.1,29.1-17.8,26.2-35.8c-3.2-20.3-27.6-22.2-39.7-34.4c6.8-4.6,14.6-8.3,21.4-12.7"/>
	
		<linearGradient id="SVGID_18_" gradientUnits="userSpaceOnUse" x1="1609.6934" y1="741.4484" x2="1609.6934" y2="441.3284" gradientTransform="matrix(-1 0 0 1 1996 0)">
		<stop  offset="8.813559e-02" style="stop-color:#050505"/>
		<stop  offset="1" style="stop-color:#000000"/>
	</linearGradient>
	<path fill="url(#SVGID_18_)" d="M390,441.3c-3.5,7.4,9.2,42.2,14.6,49.7c10.8,14.8,11.7,27,12.4,45.3c1.3,32.3-37.1,56.6-40.8,90.2
		c-2.6,23.4,20.2,41.3,27.8,62.5c4.6,12.8,8.9,31.2,2,43.1c-2.6,4.5-8.1,11-14.4,9c-6.9-1.3-5.3-12.6,2.7-9.4
		c-3.6-1.2-5.8,0.7-6.2,2.8c-0.8,3.9,4.3,5,6.6,4c6.1-2.8,7.7-9.7,8.5-13.2c2.1-9.2,0.3-18.1-0.6-27.1c-1.9-18.3-13.8-32.1-22.7-48
		c-10.5-18.8-10.6-28.1-0.3-46.4c7.9-14.1,17.7-27.7,26.3-41.5c11.3-18.3,3.8-41.2-9.2-58.2c-12.4-16.2-27.2-19.4-41-50.6
		c8.9-5.6,18.5,5,24.2-4.2c2-0.7,1.2,1.1,1.9,1.3"/>
	
		<linearGradient id="SVGID_19_" gradientUnits="userSpaceOnUse" x1="1532.1243" y1="126.6879" x2="1608.5752" y2="126.6879" gradientTransform="matrix(-1 0 0 1 1996 0)">
		<stop  offset="0" style="stop-color:#000000"/>
		<stop  offset="1" style="stop-color:#050505"/>
	</linearGradient>
	<path fill="url(#SVGID_19_)" d="M463.9,147.8c0,0-6.3-44.2-76.1-54.9l-0.3,3.1c0,0,50.8-2.7,70.1,55.8H453c0,0-9.2-52.5-64.4-52.3
		l1.1,2.9c0,0,52.9-8.6,59.2,53.5l2.9,4.6L463.9,147.8z"/>
	
		<linearGradient id="SVGID_20_" gradientUnits="userSpaceOnUse" x1="1672.1366" y1="536.7336" x2="1686.0594" y2="536.7336" gradientTransform="matrix(-1 0 0 1 1996 0)">
		<stop  offset="0" style="stop-color:#000000"/>
		<stop  offset="1" style="stop-color:#050505"/>
	</linearGradient>
	<path fill="url(#SVGID_20_)" d="M319.9,526.3c-2.4,3.1-2.9,7.7-1.9,11.5c1,4,3.6,5.5,5.9,8.5c-2.7,1.4-7.7,2.9-10.3-0.2
		c-3.9-6.7-4.6-12.9-2.2-20.7c3.1,0.8,5.7,0.4,8.8,0.3"/>
	
		<linearGradient id="SVGID_21_" gradientUnits="userSpaceOnUse" x1="1811.2908" y1="300.8639" x2="1849.8944" y2="300.8639" gradientTransform="matrix(-1 0 0 1 1996 0)">
		<stop  offset="0" style="stop-color:#000000"/>
		<stop  offset="1" style="stop-color:#050505"/>
	</linearGradient>
	<path fill="url(#SVGID_21_)" d="M183.2,301.5c-0.6,0-20.3,5.4-36.4-8c0,0-1,0.2-0.6,1.9c0,0,27.6,19.2,38.5,10.9L183.2,301.5z"/>
	<g>
		<ellipse fill="#FFFFFF" cx="591" cy="506.5" rx="21.6" ry="16"/>
		<path fill="#BE1E2D" d="M617.8,486.9c-1.2-5.7-11.3-15-17-10.2c-4.8,3.9-6.1,6.9-15.5,5.3c-9.1-1.5-18.2,13-19.5,14.5
			c-7.3,8.2-5.9,8.5-16.5,18.3c-3.2,2.9-8.8,5.2-5.9,8.1c5.2,2.1,13.8-2.1,17.8-4.9c5.4-3.8,13.4-7.7,17.9-10.7
			c5.5-3.7,13.8-9.6,20.6-9.7c9.1-0.1,9.8,6.9,13.1,3.1C616.8,496.1,617.7,490.2,617.8,486.9"/>
		<path fill="#AB1E2D" d="M617.6,486.7c1.3,3.4-0.7,9.2-2.9,10.5c-2.3-2.1-9.3,1.3-9.3,1.3c-0.5-0.6-2.8-1.2-5.7-1.2
			c-4.7,0-9.4,2.9-13.6,5.2c-4.3,2.3-8.4,5.7-13.3,7.4c-3.6,1.3-9.3,4.8-14.1,6.6c0,0-12.7,6.9-17.4,7c-2.5-1.3,1.9-4.9,3-5.3
			c4.7,2.9,11-1.1,14.9-3.1c5.3-2.6,12.6-5.7,17.6-9c10.4-6.9,18.4-12.4,28.9-10.7C616.2,497.3,617.9,492.4,617.6,486.7"/>
		<path fill="#BE1E2D" d="M614.8,497.3c4.7,5.1,4.6,13.2,1.7,19c-3.2,6.5-7.6,7.8-14.6,10.9c-11.7,5-23,6.7-33.3,3.4
			c-9-2.8-7.8-1.8-13.3-3.5c-4.7-1.5-8-2.4-10-3c-7.9-2.3,5.2-2.5,11.6-6.2c8.8-5.1,12.2-6.1,17.4-8.2c6.1-2.4,17.8-3,20.1-4.6
			C601.7,500.1,609.3,495.9,614.8,497.3"/>
	</g>
	<g>
		<g>
			<path fill="#FFFFFF" d="M335.3,321c-10.3,16.7-19.8,49.9-2.2,57.1c13.4,5.6,22.9-13.7,22.9-28c0.1-22-15.5-29.1-15.5-29.1
				C339.4,321.8,337,322,335.3,321z"/>
			<path fill="#FFFFFF" d="M362.4,255c-11.2-9.3-28.8-1-33,18.7c-1.7,7.7-1,14.7,0.4,20.5c-7.4-16.2-19.6-31.7-32.5-26.5
				c-13.4,5.4-14.1,25.8-4.1,36c3.2,3.3,6.8,5.7,10.5,7.5c-14.6,0.3-28,4.4-29.9,15.5c-2.4,14.4,18.8,23.1,32.7,20
				c21.5-4.9,26.9-26.1,26.9-26.1c-1-1-1.8-3.3-1.2-5.2c-0.1,0-0.1,0-0.2-0.1c0.4-1.5,1.9-3.3,3.8-3.7c-0.5-2-1.1-4.2-1.8-6.4
				c2,3.7,3.7,5.9,3.7,5.9c1.5-0.4,3.9,0,5.1,1.5C357.7,299.6,377,267.1,362.4,255z"/>
			<path fill="#FFFFFF" d="M343,314.9c0.5,1.4,0.5,3.7-0.7,5.3c15.3,12.2,47,25.7,56.4,9.1c7.1-12.7-10.8-24.4-25-26.2
				C351.8,300.3,343,314.9,343,314.9z"/>
		</g>
		<g>
			<path fill="#BE1E2D" d="M318.4,308.1c3.8-9,14.5-13,23.8-9.1c9.4,4.1,13.8,14.6,9.9,23.5c-3.8,9-14.6,13.1-23.7,9.1
				C318.9,327.7,314.5,317.3,318.4,308.1z"/>
		</g>
	</g>
</g>
<g id="speech_bubble">
	<g id="drop_shadow_1_" opacity="8.000000e-02">
		<path d="M1010.4,77.6c-136.4,0-246.9,82.1-246.9,183.3c0,56.3,34.2,106.6,88,140.2c-0.5,24-7.5,68.3-43.9,102
			c65.3-15.1,107.3-48.5,127.5-67.7c23.8,5.7,49.1,8.7,75.4,8.7c136.4,0,246.9-82.1,246.9-183.3
			C1257.3,159.7,1146.7,77.6,1010.4,77.6z"/>
	</g>
	<g id="color">
		<path fill="#FFFFFF" d="M1028.2,59.8c-136.4,0-246.9,82.1-246.9,183.3c0,56.3,34.2,106.6,88,140.2c-0.5,24-7.5,68.3-43.9,102
			c65.3-15.1,107.3-48.5,127.5-67.7c23.8,5.7,49.1,8.7,75.4,8.7c136.4,0,246.9-82.1,246.9-183.3
			C1275.1,141.9,1164.6,59.8,1028.2,59.8z"/>
	</g>
</g>
</svg>
