<?xml version="1.0" encoding="iso-8859-1"?>
<!-- Generator: Adobe Illustrator 19.0.0, SVG Export Plug-In . SVG Version: 6.00 Build 0)  -->
<svg version="1.1" id="Layer_1" xmlns="http://www.w3.org/2000/svg" xmlns:xlink="http://www.w3.org/1999/xlink" x="0px" y="0px"
	 viewBox="0 0 512 512" style="enable-background:new 0 0 512 512;" xml:space="preserve">
<g transform="translate(0 -1)">
	<g>
		<path style="fill:#2F3744;" d="M230.4,376.467c-4.719,0-8.533-3.814-8.533-8.533v-25.6c0-4.719,3.814-8.533,8.533-8.533
			s8.533,3.814,8.533,8.533v25.6C238.933,372.652,235.119,376.467,230.4,376.467"/>
		<path style="fill:#2F3744;" d="M281.6,376.467c-4.719,0-8.533-3.814-8.533-8.533v-25.6c0-4.719,3.814-8.533,8.533-8.533
			c4.719,0,8.533,3.814,8.533,8.533v25.6C290.133,372.652,286.319,376.467,281.6,376.467"/>
		<path style="fill:#2F3744;" d="M230.4,461.8c-4.719,0-8.533-3.814-8.533-8.533V410.6c0-4.719,3.814-8.533,8.533-8.533
			s8.533,3.814,8.533,8.533v42.667C238.933,457.986,235.119,461.8,230.4,461.8"/>
		<path style="fill:#2F3744;" d="M281.6,461.8c-4.719,0-8.533-3.814-8.533-8.533V410.6c0-4.719,3.814-8.533,8.533-8.533
			c4.719,0,8.533,3.814,8.533,8.533v42.667C290.133,457.986,286.319,461.8,281.6,461.8"/>
	</g>
	<path style="fill:#464F5D;" d="M307.2,410.6H204.8v-21.026c0-11.955,9.685-21.641,21.641-21.641h59.119
		c11.955,0,21.641,9.685,21.641,21.641V410.6z"/>
	<path style="fill:#24AE5F;" d="M213.333,257c0,56.55-45.85,102.4-102.4,102.4S8.533,313.55,8.533,257s45.85-102.4,102.4-102.4
		S213.333,200.45,213.333,257"/>
	<g>
		<path style="fill:#804537;" d="M110.933,299.667c-2.185,0-4.369-0.836-6.033-2.5l-25.6-25.6c-3.337-3.337-3.337-8.73,0-12.066
			c3.337-3.337,8.73-3.337,12.066,0l25.6,25.6c3.337,3.337,3.337,8.73,0,12.066C115.302,298.83,113.118,299.667,110.933,299.667"/>
		<path style="fill:#804537;" d="M110.933,299.667c-2.185,0-4.369-0.836-6.033-2.5c-3.337-3.337-3.337-8.73,0-12.066l25.6-25.6
			c3.337-3.337,8.73-3.337,12.066,0c3.337,3.337,3.337,8.73,0,12.066l-25.6,25.6C115.302,298.83,113.118,299.667,110.933,299.667"/>
		<path style="fill:#804537;" d="M110.933,461.8c-4.719,0-8.533-3.814-8.533-8.533V291.133c0-4.719,3.814-8.533,8.533-8.533
			c4.719,0,8.533,3.814,8.533,8.533v162.133C119.467,457.986,115.652,461.8,110.933,461.8"/>
	</g>
	<path style="fill:#24AE5F;" d="M503.467,180.2c0,70.69-57.31,128-128,128s-128-57.31-128-128s57.31-128,128-128
		S503.467,109.51,503.467,180.2"/>
	<g>
		<path style="fill:#804537;" d="M375.467,239.933c-2.185,0-4.369-0.836-6.033-2.5l-25.6-25.6c-3.337-3.337-3.337-8.73,0-12.066
			c3.337-3.337,8.73-3.337,12.066,0l25.6,25.6c3.337,3.337,3.337,8.73,0,12.066C379.836,239.097,377.651,239.933,375.467,239.933"/>
		<path style="fill:#804537;" d="M375.467,239.933c-2.185,0-4.369-0.836-6.033-2.5c-3.337-3.337-3.337-8.73,0-12.066l25.6-25.6
			c3.337-3.337,8.73-3.337,12.066,0c3.337,3.337,3.337,8.73,0,12.066l-25.6,25.6C379.836,239.097,377.651,239.933,375.467,239.933"
			/>
		<path style="fill:#804537;" d="M375.467,461.8c-4.719,0-8.533-3.814-8.533-8.533V231.4c0-4.719,3.814-8.533,8.533-8.533
			c4.719,0,8.533,3.814,8.533,8.533v221.867C384,457.986,380.186,461.8,375.467,461.8"/>
	</g>
	<path style="fill:#95A5A5;" d="M503.467,461.8H8.533C3.814,461.8,0,457.986,0,453.267s3.814-8.533,8.533-8.533h494.933
		c4.719,0,8.533,3.814,8.533,8.533S508.186,461.8,503.467,461.8"/>
</g>
<g>
</g>
<g>
</g>
<g>
</g>
<g>
</g>
<g>
</g>
<g>
</g>
<g>
</g>
<g>
</g>
<g>
</g>
<g>
</g>
<g>
</g>
<g>
</g>
<g>
</g>
<g>
</g>
<g>
</g>
</svg>
