<?xml version="1.0" encoding="iso-8859-1"?>
<!-- Generator: Adobe Illustrator 19.0.0, SVG Export Plug-In . SVG Version: 6.00 Build 0)  -->
<svg version="1.1" id="Layer_1" xmlns="http://www.w3.org/2000/svg" xmlns:xlink="http://www.w3.org/1999/xlink" x="0px" y="0px"
	 viewBox="0 0 512 512" style="enable-background:new 0 0 512 512;" xml:space="preserve">
<g transform="translate(0 -1)">
	<path style="fill:#805333;" d="M273.067,261.267H256h-17.067c0,0,8.533,230.4-59.733,230.4h153.6
		C264.533,491.667,273.067,261.267,273.067,261.267"/>
	<path style="fill:#95A5A5;" d="M503.467,500.2H8.533c-4.71,0-8.533-3.814-8.533-8.533c0-4.719,3.823-8.533,8.533-8.533h494.933
		c4.71,0,8.533,3.814,8.533,8.533C512,496.386,508.177,500.2,503.467,500.2"/>
	<path style="fill:#24AE5F;" d="M418.133,184.467c0-32.99-26.743-59.733-59.733-59.733c-7.04,0-13.756,1.28-20.028,3.516
		c-5.265-19.635-17.323-36.489-33.545-47.838C306.364,75.547,307.2,70.367,307.2,65c0-28.279-22.921-51.2-51.2-51.2
		c-28.279,0-51.2,22.921-51.2,51.2c0,5.367,0.836,10.547,2.372,15.411c-16.222,11.349-28.279,28.203-33.545,47.838
		c-6.272-2.236-12.988-3.516-20.028-3.516c-32.99,0-59.733,26.743-59.733,59.733S120.61,244.2,153.6,244.2
		c16.973,0,32.256-7.108,43.127-18.475c3.533,29.619,28.698,52.608,59.273,52.608s55.74-22.989,59.273-52.608
		c10.871,11.366,26.155,18.475,43.127,18.475C391.39,244.2,418.133,217.457,418.133,184.467"/>
</g>
<g>
</g>
<g>
</g>
<g>
</g>
<g>
</g>
<g>
</g>
<g>
</g>
<g>
</g>
<g>
</g>
<g>
</g>
<g>
</g>
<g>
</g>
<g>
</g>
<g>
</g>
<g>
</g>
<g>
</g>
</svg>
